<svg xmlns="http://www.w3.org/2000/svg" viewBox="0 0 620 460" role="img" aria-label="??????" data-source="https://geo.datav.aliyun.com/areas_v3/bound/100000.json" data-filter="mainland-hainan-taiwan" data-generated="2026-07-03">
  <path class="china-land" fill="#dc7858" fill-opacity="0.74" fill-rule="evenodd" d="M496.4 189.1 L497.5 188.4 L498.3 188.1 L498.5 187.7 L499.4 187.2 L500.1 186.7 L500.4 186.9 L500.8 186.7 L501.3 186.8 L501.3 186.6 L500.9 186.5 L501 186.2 L501.6 185.9 L501.9 185.9 L502.6 185.5 L503.3 185.4 L503.5 185.1 L503.7 185 L503.9 185.2 L504.4 185 L504.8 185.2 L504.8 184.9 L505.1 184.9 L505.1 184.6 L505.5 184.4 L505.9 184.4 L506 184.1 L506.3 183.8 L506.6 184.1 L507.2 184 L507.1 183.8 L506.8 183.7 L506.9 183.5 L507.4 183.1 L508.1 182.8 L508.4 183.1 L508.8 182.9 L509 182.7 L509.4 183 L509.7 183 L510.2 182.5 L510.5 182.5 L510.6 182.2 L510.9 182.1 L510.7 181.9 L511.1 181.8 L511 181.6 L511.4 181.3 L511.3 181 L511.7 181 L511.9 180.8 L511.9 180.8 L512.8 180.3 L513.2 179.7 L513.4 179.6 L513.6 179.2 L514.2 178.6 L514.7 178.4 L515 178.7 L515.1 178.5 L514.7 178.1 L515.3 176.8 L515.5 176.7 L515.3 176.3 L515.6 176.1 L515.7 175.7 L516.1 175.8 L516.5 175.7 L516.8 175.3 L516.5 175.2 L516.5 175 L516.8 174.9 L517.5 175.4 L517.6 175 L517.9 175.1 L518 174.9 L518.3 174.6 L518.7 174.4 L518.9 174.5 L518.8 174.8 L519.2 174.7 L519.4 175 L519.8 175 L519.9 175.4 L519.7 175.6 L520.3 175.9 L520.2 176.1 L520.5 176.1 L520.6 176.3 L521 176.4 L520.5 176.7 L520.4 176.9 L520.9 176.9 L521.1 177 L521.6 177.1 L522 177.3 L521.7 177.4 L522.1 177.4 L522.7 177.6 L522.7 177.5 L523.1 177.5 L523.2 177.6 L523.6 177.6 L523.6 177.5 L524.2 177.6 L524.4 177.5 L524.5 177.9 L525 177.9 L525.2 178.1 L525.7 178 L526.5 177.9 L527.2 178 L527.4 178.2 L527.5 177.8 L527.7 177.9 L527.9 177.8 L528.3 177.8 L528.5 178 L528.6 177.8 L528.9 178.3 L529.6 178.3 L529.4 178.4 L529.6 178.5 L530.1 178.2 L530.4 178.1 L530.8 177.5 L530.8 177.3 L531.3 176.9 L531.5 176.6 L531.3 176.1 L530.9 175.6 L530.5 175.5 L530.1 175.2 L529.9 174.7 L529.6 174.6 L529.5 174.1 L529.6 173.6 L529.5 173.1 L528.9 172.7 L529.4 172.5 L531.3 172.4 L532.3 172.5 L532.9 172.5 L533.2 172.7 L534.1 172.6 L534.2 172.4 L534.4 172.3 L534.6 172.5 L535 172.5 L535.4 172.2 L535.8 172.4 L535.9 172.3 L536.8 172.5 L537.4 172.4 L537.4 171.9 L537.5 171.8 L537.9 171.8 L538.1 171.7 L538.2 171.4 L538.8 171.4 L539.3 170.9 L539.8 170.7 L539.7 170.5 L539.5 170.4 L539.5 170.2 L539.8 170.2 L539.9 170 L539.7 170 L540.2 169.6 L539.9 169.4 L540 169.2 L540.8 169.1 L540.6 168.9 L540.8 168.7 L541.1 168.7 L541 168.5 L541.3 168.5 L541.2 168.7 L541.4 168.7 L541.5 168.5 L542 168.6 L542.4 168.9 L542.8 169.3 L543.1 169.2 L543 169 L543.3 168.8 L543.3 168.8 L543.2 168.5 L543.5 168.4 L543.8 168.7 L544.3 168.7 L544.7 168.3 L544.6 168.1 L544.7 167.6 L544.7 167.3 L545 167 L544.7 166.7 L545.1 166.4 L544.9 166.1 L545 165.6 L545.3 165.3 L545.3 164.8 L545.5 164.7 L545.6 164.2 L545.9 164.1 L545.7 163.9 L545.8 163.7 L546.1 163.7 L546.1 163.4 L546.6 163.3 L546.7 163.6 L547 163.6 L547.3 163.7 L547.7 163.7 L548 163.5 L548.3 163.7 L548.1 163.9 L548.2 164.1 L548 164.2 L548.3 164.3 L548.6 164.3 L548.9 164.3 L549.4 164.3 L549.6 164.4 L549.4 164.7 L549.3 165.3 L549.2 165.9 L549.4 166.1 L549.7 166.2 L550.1 166.7 L550.5 166.8 L550.6 167.1 L550.9 167 L551.1 167.1 L550.9 167.4 L551 167.6 L551.4 167.4 L551.2 167.2 L551.5 166.9 L551.8 166.9 L551.8 167.2 L552.2 168.1 L552.4 168.2 L552.4 168.6 L553 168.7 L552.5 168.5 L552.5 168.2 L552.2 168 L552.3 167.5 L552.8 167.4 L552.9 167.1 L552.5 166.5 L551.8 166.2 L551.3 166.3 L550.9 166.1 L550.8 165.9 L551.3 165.5 L551.9 165.4 L552.2 165.1 L552.6 165.1 L553.1 164.8 L553.5 164.9 L553.6 165 L554 164.9 L554.2 164.9 L554.4 164.6 L554.8 164.5 L555.2 164.8 L555.4 164.6 L555.8 164.6 L556.1 164.8 L556.6 164.7 L556.4 164.2 L556.5 164.1 L557.3 164.2 L557.6 164 L557.6 163.7 L557.3 163.7 L557.3 163.4 L557.2 163.2 L557.3 162.8 L557.8 162.8 L557.8 162.4 L558.1 162.2 L558.2 161.7 L558.1 161.6 L558.1 161.3 L558.6 161 L558.7 160.7 L558.8 160 L559.1 159.8 L559 159.4 L559.1 159.2 L559.2 158.8 L559 158.8 L558.8 158.9 L558.1 158.5 L558.3 158 L558.2 157.8 L558.4 157.3 L558.3 157.2 L558.2 156.7 L558.4 156.6 L558.2 156.1 L558.2 155.7 L558.6 155.2 L558.7 154.7 L558.5 154.6 L558.7 153.9 L558.8 153.9 L558.9 153.9 L558.9 153.8 L559.1 153.8 L557.3 147.7 L557.1 147.6 L557.1 147.3 L556.9 147.2 L556.8 147 L556.4 146.9 L556.4 146.7 L556 146.7 L555.9 146.4 L557 146.1 L557.2 145.9 L557.1 145.7 L557.7 145.5 L558.1 145.6 L558.1 145.8 L558.7 145.6 L558.8 145.7 L559.1 145.5 L559.1 145.3 L559.5 145.1 L559.7 145.2 L560 145.1 L560.5 145.3 L560.9 145.2 L560.7 145 L561.1 144.9 L561.5 144.6 L562.1 144.3 L562.6 143.8 L562.6 143.6 L562.2 143.5 L562.5 143 L562.9 142.8 L563.2 143 L563.5 143 L563.5 142.7 L563.8 142.3 L563.9 142.1 L564.4 141.8 L564.7 141.9 L564.8 142.3 L565.2 142.4 L565.5 142.7 L567.1 143 L569.1 143.5 L572.5 144.2 L573.4 144.4 L573.9 144.7 L574.3 144.8 L574.6 144.6 L575 144.5 L575.3 144.1 L575.5 144.1 L575.7 143.9 L576 143.8 L575.9 143 L575.6 142.7 L575.7 142.5 L575.6 142.4 L575.9 141.9 L575.8 141.7 L576 141.6 L576 141 L576.2 141 L576.2 140.7 L576.6 140.2 L576.9 140.2 L577.7 139.8 L577.8 139.9 L578.3 139.6 L578.6 139.6 L578.5 139.3 L579 139.2 L578.8 139 L579.2 138.9 L579.1 138.6 L578.8 138.5 L578.9 138.3 L579.2 138.2 L579 137.8 L579.3 137.8 L579 137.6 L579 137.3 L579.2 137.2 L579.2 137 L579.4 136.8 L579.8 136.8 L580.1 137 L580.4 136.7 L580.3 136.3 L580.9 136.3 L581 135.9 L581.5 135.3 L581.5 135.1 L581 134.5 L581.2 134.3 L581.7 134.2 L582 134 L582.2 133.6 L582.5 133.9 L582.8 133.6 L582.7 133.5 L583.1 133.4 L583.1 133.2 L583 132.9 L583.2 132.7 L582.7 132.7 L582.8 132.4 L583.3 132.3 L583.4 132.1 L583 131.7 L582.5 131.6 L582.5 131.4 L582.9 130.9 L583.2 130.3 L584 129.9 L584.2 129.2 L584.2 128.8 L584.4 128.6 L584.1 128.3 L584.3 128 L584.3 127.6 L584.6 127.1 L584.5 126.7 L584.8 126.5 L585 126 L585.2 125.7 L585.9 125.6 L586 125.3 L586 124.9 L585.8 124.6 L585.3 124.3 L585.5 123.5 L585.8 123.4 L586.3 123.1 L586.4 122.9 L586.7 122.6 L587 122.5 L588.4 122.4 L588.7 122.2 L589.1 122.1 L589.2 121.8 L589.7 121.5 L590.1 121.1 L590.3 120.7 L591.1 120 L591 119.5 L590.2 119 L590.1 118.6 L590.1 118.4 L590 118.2 L589.5 118.2 L589.4 117.8 L589 117.5 L589 117 L589.7 116.4 L590.1 115.8 L590.2 115 L591 114.7 L591.9 114.3 L593.2 114 L594 113.6 L594 113.3 L593.8 113.1 L593.4 113.3 L593.1 113.3 L592.4 113.2 L592.1 113.3 L591.7 113.7 L591.5 113.9 L590.9 113.9 L590.4 113.6 L589.8 113.6 L589.2 113.6 L588.5 113.5 L587.9 113.6 L587.3 113.8 L585.8 113.8 L585.3 114.1 L585 114.3 L584.5 114.2 L584.2 114.3 L583.9 114.5 L583.3 114.5 L582.8 114.7 L582.3 114.8 L582 114.9 L581.5 115 L581.1 115.6 L580.8 115.6 L580.2 115.5 L580 115.7 L579.7 116.2 L578.8 116.3 L578.4 116.2 L577.5 116.4 L576.9 116.2 L576.4 116.1 L575.9 116.1 L575.2 116.3 L574.9 116.5 L574.8 116.8 L574.6 117 L573.6 117.3 L573 117.9 L572.5 117.9 L572.1 117.7 L571.8 117.7 L571.6 117.8 L571.6 118 L571.8 118.4 L571.6 118.7 L571.2 118.9 L571 119.2 L571 119.7 L570.6 119.9 L569.8 119.9 L568.9 119.5 L568.5 119.5 L568.1 119.7 L568 119.9 L567.7 120 L567.3 120 L566.9 120.1 L566.2 120.1 L565.5 120 L565.2 120.3 L564.5 120.2 L563.8 120.3 L563.1 120 L562.6 120 L562.1 120.4 L561.7 120.5 L561.5 120.3 L561.4 119.9 L561.2 119.8 L560.4 119.7 L559.6 119.8 L558.8 119.7 L558.4 119.8 L557.9 120.1 L557.3 120.2 L556.5 120.2 L556.1 120 L555.9 119.8 L555.9 118.9 L555.2 118 L555 117.9 L554.1 117.4 L553.8 117 L553.5 116.9 L553.2 116.4 L553.2 116.2 L554.1 115.6 L554.1 115.2 L554.3 115 L554.6 114.9 L554.8 114.6 L554.6 114.2 L554.3 114 L553.9 113.6 L553.9 113.2 L554.2 112.9 L554.1 112.7 L553.6 112.6 L553 112.9 L552.7 112.8 L552.7 112 L552.6 111.9 L552 111.7 L552 111.5 L552.3 111 L552.7 110.1 L553.4 109.5 L553.3 109.2 L552.6 109.2 L552.2 109.4 L551.6 109.3 L551.4 109 L550.8 109 L549.6 109.3 L549.2 109.3 L549 109.1 L548.1 108.5 L547.6 108.3 L547.2 107.9 L546.4 107.7 L546.3 107.6 L546.4 107.4 L546.2 107.1 L545.8 107.1 L545.7 106.9 L545.8 106.6 L545.6 106.4 L545 106.4 L544.7 106.2 L544.8 105.7 L544.5 105.5 L544.2 105.4 L543.4 105.5 L543 105.3 L542.8 104.5 L542.6 104.2 L541.9 104 L541.4 104.1 L541.2 104.3 L541.3 104.7 L541.1 104.8 L540.7 104.8 L540.2 104.5 L539.8 104.4 L539.5 104.5 L539.1 104.8 L538.6 104.8 L538.4 104.7 L537.9 103.9 L537.2 103.8 L536.6 103.6 L535.9 103.7 L535.6 103.7 L535.6 103.4 L536.1 103 L536 102.7 L535.4 102.6 L535.2 102.9 L534.6 102.8 L534.3 102.6 L533.5 102.5 L533.2 102.6 L532.2 102.7 L531.7 103.1 L531.2 102.9 L530.8 102.9 L530.3 103.1 L529.7 103 L529.2 103 L528.6 102.6 L528.1 102.6 L527.6 102.8 L526.9 102.6 L526.6 102.3 L525.8 102 L525.6 101.7 L525.6 101.1 L525.4 100.9 L524.7 100.9 L524.2 100.5 L524.2 100.1 L524.4 99.5 L524.4 99.4 L523.9 98.9 L524 98.4 L524.8 97.6 L524.9 97.2 L524.9 96.7 L523.5 96.4 L522.8 96.2 L522.4 95.7 L522.8 95.2 L522.7 94.8 L522.2 94.7 L522.1 94.6 L522.3 94 L522.7 93.8 L522.8 93.5 L522.1 92.8 L522 92.4 L522.2 92.1 L522.1 91.9 L521.5 91.7 L520.7 90.5 L520.4 90.2 L519.8 90 L519.2 89.4 L518.6 89.1 L518.6 88.4 L518.4 87.8 L518.7 87.4 L519.1 87 L519.2 86.7 L519.1 86.6 L518.3 86.7 L518.2 86.9 L518.5 87.1 L518.6 87.3 L518.5 87.4 L518.1 87.4 L517.7 87.1 L517.6 86.8 L517.8 86.5 L518.5 86.5 L518.7 86.4 L518.5 85.9 L517.8 85.9 L517.4 85.7 L517.4 85.5 L517.6 85.1 L517.9 84.9 L517.8 84.7 L516.5 84.3 L516.4 84.1 L517 83.7 L516.8 83.4 L516.9 83.1 L516.8 83 L516.3 82.9 L516.2 82.6 L515.9 82.5 L515.5 82.1 L515.2 81.6 L514.8 81.2 L514.4 80.9 L514.4 80.6 L514.3 80.4 L514.3 80.2 L514.6 80.1 L514.9 80.1 L515.3 79.3 L515.3 79.2 L514.7 79 L514.3 78.9 L513.8 78.7 L513.3 78.7 L513 78.6 L513 78.3 L513.4 78 L513.8 77.9 L514.1 77.9 L514.1 77.7 L513.1 77.6 L513.1 77.3 L513.3 77.1 L513.4 76.9 L513.1 76.5 L512.6 76.1 L512 76.1 L511.9 75.9 L512.1 75.6 L511.5 75.2 L510.7 74.9 L510.6 75.1 L510.4 75.1 L510 74.9 L509.8 74.6 L509.9 74.4 L510.1 74.2 L510.7 74.2 L510.8 74.1 L510.5 73.6 L511.2 73.5 L511.2 73.4 L510.6 73.1 L510.3 73.1 L510 73.5 L509.8 73.4 L509.5 73.2 L509.4 72.9 L508.8 72.5 L508.8 72.2 L508.5 72.2 L508 72.2 L507.8 72.3 L507.6 72.3 L507.2 72.5 L507 72.4 L507 72 L507.7 71.7 L507.7 71.3 L507.2 71.2 L506.8 70.9 L506.8 70.7 L506.6 70.5 L506.3 70.5 L505.8 70.8 L505.6 70.7 L505.5 70.3 L505.1 70.2 L504.1 69.9 L503.8 69.9 L503.2 69.6 L502.7 69.4 L502.2 69.3 L501.3 69.4 L500.6 69.4 L499.9 69.7 L500.1 70.1 L499.7 70.3 L499.4 69.9 L498.9 69.9 L498.5 69.9 L498.2 69.7 L498.3 69.5 L497.9 69.3 L497.1 69.3 L496.9 69.4 L496.3 69.3 L496.2 69.2 L495.7 69.2 L495.5 68.9 L495.1 68.8 L494.7 68.2 L493.9 67.7 L493.5 67.8 L492.8 68 L492.2 67.5 L491.8 67.5 L491.5 67.2 L490.4 66.7 L489.8 66.7 L489.3 66.6 L488.9 66.6 L488.6 66.3 L488.2 66.2 L487.9 66.2 L487.7 66.6 L487.4 66.5 L487.6 66.3 L487.5 66.1 L487.2 66.1 L487 66.2 L487.2 66.5 L487.1 66.6 L486.8 66.5 L486.6 66.3 L486.1 66.3 L485.3 66.1 L485 66 L484.6 66.2 L484.1 66.5 L483.7 66.6 L483.3 66.5 L482.9 66.6 L481.9 66.8 L481.5 67 L480.9 67 L480.3 66.9 L479.4 67 L478.8 66.9 L478.2 67 L477.8 67 L477.2 67.1 L476.7 66.8 L476.5 66.6 L475.7 66.9 L475.3 67 L474.7 66.9 L474.3 67.3 L473.9 67.3 L473.5 67.3 L472.1 67.3 L471.5 67.4 L471 67.6 L470.4 67.6 L469.5 68 L468.6 68.1 L467.9 68.3 L467.1 68.2 L466.9 68.4 L466.1 68.6 L465.4 68.6 L465.2 68.7 L464.9 68.4 L464.5 68.5 L463.6 68.5 L463.4 68.6 L462.9 68.5 L462.8 68.7 L462.4 68.7 L462.5 69 L462.4 69 L461.6 69.3 L461.2 69.6 L461.1 69.9 L460.9 70 L460.7 70.2 L460 70.5 L459.7 70.8 L459 71.1 L458.6 71.6 L458.1 71.8 L458 72.1 L457.5 72.2 L457.5 72.4 L456.8 72.7 L456.5 73 L456.1 72.9 L455.7 73.2 L455.1 73.3 L455.4 73.9 L455.1 74.5 L455.2 74.9 L455.5 75 L455.9 75 L456.6 75.1 L457.5 74.7 L458.5 74.8 L459.1 74.5 L459.3 74.6 L460 75 L460.4 75 L460.6 75.2 L460.9 75.2 L461.2 75.4 L461.6 75.5 L461.1 75.7 L461.3 75.9 L461.1 76.2 L461.1 76.5 L460.8 76.8 L460.8 77 L460.5 77.1 L460.6 77.5 L460.8 77.7 L461.2 77.8 L461.4 78 L461.8 78.1 L461.7 78.5 L462 79 L461.8 79.2 L461.9 79.4 L461.7 79.7 L461.4 79.8 L461.2 80 L461.2 80.2 L461.4 80.3 L461.3 80.6 L460.9 80.8 L460.8 81.1 L459.8 81.3 L459.9 81.5 L459.2 81.5 L459.2 81.8 L458.5 82 L458.5 82.1 L458.1 82.4 L457.7 82.4 L457.5 82.7 L456.9 83 L456.4 83.4 L455.6 83.4 L455.7 83.7 L455.3 83.8 L455.1 84.3 L455.3 84.5 L455 84.9 L454.7 85 L454.6 85.2 L454.8 85.4 L454.6 85.6 L454.5 86 L454 86.1 L454 86.2 L454.3 86.3 L453.7 86.6 L453.7 86.9 L453 87.1 L453.2 87.2 L452.9 87.4 L453.1 87.7 L452.8 87.6 L452.6 87.7 L452.8 88.1 L452.7 88.5 L452.5 88.6 L452.6 88.8 L452.2 89 L452.3 89.2 L451.8 89.5 L451.4 89.6 L451.1 89.8 L450.8 90.3 L450.1 90.8 L450.2 91.3 L450.3 91.4 L450.1 91.8 L450.2 91.8 L449.7 92.5 L449.5 92.6 L449.1 92.6 L449.2 92.7 L448.9 93.1 L448.3 93.2 L448.2 93.3 L448.3 93.6 L448 93.9 L448 94.4 L447.9 94.8 L447.6 94.8 L447.6 95.1 L447.1 95 L446.7 95.3 L447.2 95.4 L447 95.5 L447.3 95.7 L447.7 95.5 L448 95.7 L448.1 95.5 L448.5 95.6 L448.9 95.6 L449.1 95.9 L448.8 96.1 L448.7 96.6 L448.5 96.9 L448.9 97.1 L448.7 97.1 L448.8 97.4 L448.4 97.4 L448.2 97.8 L447.7 98.2 L447.3 98.1 L447.4 98.2 L447.1 98.6 L446.7 98.7 L446.4 99 L445.4 99.1 L445.2 99 L443.6 99.3 L443.4 99.3 L443.2 99.4 L442.5 99.3 L441.9 99.6 L441.6 99.5 L441.2 99.9 L440.8 100.1 L440.8 100.5 L440.4 100.4 L439.9 100.5 L440 100.7 L439.9 100.9 L439.3 101 L439 101.3 L438.4 101.4 L438.3 101.7 L437.8 102 L437.5 101.9 L437.1 102.4 L436.5 102.4 L436.3 102.4 L435.9 102.6 L435.1 102.7 L435 103 L434.6 103.3 L433 102.8 L431.6 102.3 L429.7 102.2 L427.8 101.7 L424.7 100.3 L424.5 100.3 L421.9 104.1 L418.3 109.3 L418.6 109.7 L418.5 109.9 L416.3 112.2 L416.1 112.6 L416.3 114.9 L416.2 115 L413.6 115.9 L413.7 116.1 L413.7 116.4 L414 118.1 L417.3 120.3 L417.6 120.2 L418.9 119.1 L419.1 119 L420.4 118.5 L422.1 118.8 L424.1 118.3 L425.2 118.3 L426 118.3 L428 119 L430.7 120.6 L431.7 119.6 L431.9 119.5 L432 119.3 L434.6 117.2 L435.3 117.1 L436 117.2 L436.8 117.2 L437.3 117 L437.5 116.9 L437.7 117 L438.5 116.9 L438.5 117 L439 117.2 L439.6 117.3 L439.8 117.2 L440.2 117.2 L440.4 117.4 L441.6 117.4 L443.5 119.4 L446.8 120.4 L447 121.6 L447.5 121.8 L448.9 122.2 L448.5 122.6 L448.9 122.7 L449.1 122.9 L449.6 123.1 L449.7 123.3 L450.7 123.8 L450.8 124.3 L451.4 124.3 L452.2 124.8 L452.6 125.3 L453 126 L452.9 126.1 L452.9 126.4 L453.4 126.9 L453.5 127.3 L454.1 127.4 L454.1 127.9 L454.2 128.5 L454 128.8 L454.2 129.2 L454 129.6 L453.5 129.6 L453 129.5 L453.1 129.6 L452.8 130 L452.4 130.1 L451.8 130.4 L451.9 130.2 L451.6 130 L451.1 130.1 L450.7 129.9 L450.1 130 L449.6 129.9 L449 130.2 L448.9 130.1 L448.6 130.2 L448 129.8 L447.4 129.8 L447 129.7 L446.7 129.8 L446.3 129.5 L445.7 128.9 L445.1 129.1 L444.8 129 L444.8 128.6 L444.1 128.7 L443.6 129.2 L443.6 129.4 L442.6 129.3 L442.2 129.1 L441.8 129.4 L440.5 129.3 L440.1 129.1 L439.3 129 L438.9 129.2 L438.5 129.2 L438.1 129.5 L437.5 129.5 L436.8 130 L436.3 130 L436.2 130.1 L435.6 130.2 L435.1 130.5 L435.2 130.7 L434.6 130.9 L434.2 130.8 L434 131 L433.6 131 L433 130.6 L432.9 130.3 L432.6 130.2 L431.7 130.2 L431 130.4 L431.3 130.9 L430.7 131.5 L430.6 131.9 L430.7 132.1 L430.6 132.5 L429.4 132.4 L428 132.5 L426 132.3 L425.6 132.2 L425.4 132.5 L424.8 132.8 L424.1 132.8 L423.3 133.1 L423.2 133.4 L422.8 133.6 L422 134.5 L421.7 134.5 L420.4 136.1 L420.1 136.9 L420.6 137.3 L420.5 137.3 L420.5 137.8 L420.3 137.8 L420 138.1 L419.9 138.3 L419.5 138.6 L419 138.7 L418.2 138.7 L418.2 138.9 L417.3 139.2 L416.7 139.7 L415.1 140.8 L414.1 140.9 L412 141.4 L410.3 141.3 L408.5 141.5 L407.9 141.4 L406.3 141 L405 141.3 L404.5 141.4 L404.4 142 L404.3 142.4 L403.7 143 L403.2 143.3 L402.7 143.9 L402.3 144 L401.2 144.7 L400.9 145.1 L400.5 145.4 L400.1 145.6 L398.6 145.8 L398.2 146.3 L397.6 146.4 L396.8 147 L396.1 147.3 L395.2 147.2 L394.9 147 L391.3 146.8 L390.6 146.6 L389.7 146.5 L388.9 146.5 L387.6 146.1 L386.5 145.6 L386 145 L385.1 144.3 L384.7 144.4 L382.1 144.3 L381.7 144.1 L381 144.2 L380.1 144.5 L378.8 145.3 L378.2 146.3 L377.6 147 L377.2 147.7 L377 148.3 L377.1 148.9 L376.7 149.1 L376.5 149.5 L376.2 149.7 L375.7 150.6 L375.6 150.9 L375.7 151.3 L376.5 151.5 L376.7 151.8 L376.8 152.3 L377 152.6 L377.9 153.7 L378.3 153.9 L378.9 154.1 L379.8 154.8 L380.6 155.8 L380.7 156.5 L380.6 157 L380 157.2 L379.1 157.2 L377.4 158.7 L377 158.9 L376 158.9 L375.5 159.1 L375.1 159.4 L373.5 159.8 L373.2 159.9 L372.4 160.1 L372 160.4 L370.1 162.1 L369.7 162.5 L369.4 162.6 L368.9 163.1 L368.9 163.2 L368.4 164 L366.9 164.9 L366.6 165.5 L365.8 165.8 L363.9 166.4 L363.6 166.7 L361.7 166.8 L360.1 167.3 L359.7 167.5 L358.4 168.3 L357.8 168.4 L356 168.6 L353.6 168.4 L353.2 168.5 L351.9 169 L351.5 168.8 L350.6 168.9 L349 168.6 L346.9 168.6 L346.3 168.4 L345 168.6 L344.3 168.7 L344 168.9 L343.6 168.9 L341.7 168.8 L340.2 168.9 L339.5 168.5 L339.2 168.4 L337.7 168.9 L337.4 169.3 L335.4 169.7 L332.9 170 L331.3 170.4 L329.1 171.2 L328.9 171.3 L325.8 172.4 L323.3 173.1 L321.9 173.7 L320 174.5 L319.2 175 L318.6 175 L316.6 176.5 L315.8 175.9 L314.7 175.9 L313.6 175.9 L312.1 175.8 L312.1 173.8 L311.1 174 L310.1 174.1 L308 174.5 L306 174.5 L302.2 173.8 L301.9 173.8 L299.9 173 L298.2 172.4 L295.4 171.3 L294.5 171.2 L293.8 171.2 L292.9 171.3 L289.7 170.6 L289.4 170.5 L287.7 168.7 L287 168 L286.7 168 L284.7 167.8 L282.3 167.3 L278.3 166.5 L278 166.4 L273.4 166.3 L272.9 166.8 L270.4 166.7 L270.1 166.7 L265.9 167.4 L260.8 167.1 L257 166.8 L253.7 166.6 L250.4 166.2 L245.3 165.5 L244.3 165.3 L242.4 165.7 L240.3 165.7 L237 166 L236.8 164.4 L232.7 161.3 L232.4 160.9 L232.2 159.6 L231 157.9 L230.8 157.3 L230.2 156.2 L230 155.6 L229.1 154.2 L228.2 154.1 L227.7 154 L227.3 154 L227.5 153.4 L227.5 152.7 L227.7 152.1 L228 152 L228.2 151.6 L228.1 151.5 L226.4 151.7 L225.4 151.7 L224.2 151.9 L223.7 151.5 L222.6 151.3 L222.1 151.1 L221.7 151.1 L221.2 150.6 L220.6 150.1 L220.2 150 L219.4 149.5 L218.6 149.4 L218.3 149.5 L218.1 148.8 L217.6 148.7 L217.1 148.3 L217 148.1 L216.4 147.9 L215.6 147.5 L212.5 146.2 L212.4 146 L211.5 145.7 L210.5 145.3 L209.8 145.4 L209.3 145.1 L208.7 145 L208.7 145.2 L208.1 145.1 L207.4 144.9 L206.7 144.9 L206.4 144.8 L205.8 144.9 L205.2 144.8 L205.1 144.7 L204.7 144.6 L204.4 144.6 L203.8 144.5 L202.9 144.8 L201.6 144.8 L201.2 145 L200.4 144.8 L199.8 144.9 L199.5 144.7 L198.8 144.9 L197.5 144.2 L197.1 144.2 L195.5 144.3 L194.8 144.2 L193.8 144.4 L192.5 144.3 L192 144 L191.5 143.6 L191.3 143.6 L190.8 144 L190.4 143.8 L189.6 143.7 L189.5 143.6 L189.2 143.5 L188.9 143.2 L188.6 143 L187.8 143.1 L187.4 143 L187 143.1 L186.3 143.2 L186.1 143.1 L186.4 142.7 L186.2 142.4 L185.8 142.2 L185.6 142.3 L185.6 142 L185.3 141.3 L185.3 141 L184.8 140.7 L184.3 140.5 L184.4 139.6 L184.7 138.3 L185.5 137.3 L186.4 136.5 L187.6 135.6 L187.5 135.2 L187.6 134.7 L187.2 134.3 L186.9 133.8 L187 133.6 L186.4 132.9 L187.2 132.3 L187.3 131.9 L187.6 131.7 L187.7 131.2 L187.9 131 L188.1 130.6 L188 130.4 L187.5 130.4 L187.7 129.6 L187.9 129.2 L187.5 128.7 L187.3 128.7 L187.3 128.5 L186.8 128.2 L187 127.7 L186.7 127.5 L186.6 127.1 L186.5 126.9 L185.8 126.6 L185.2 126.6 L184.5 125.8 L184.2 125.5 L183.5 124.7 L183.3 124.6 L182.9 123.9 L182.6 123.6 L183 123.1 L182.8 122.9 L182.5 122.8 L182.4 122.5 L182.5 122.3 L182.5 122 L181.8 121.5 L181.6 121 L181.3 120.7 L181.7 120.6 L181.2 120.3 L180.1 120.1 L179.8 119.9 L179.4 119.9 L178.8 119.4 L178.8 119 L178.9 118.6 L178.7 118.4 L178.5 118.5 L177.8 118.4 L177.7 118.8 L176.9 118.9 L175.9 118.8 L175.7 118.3 L174.9 118.1 L174.9 117.8 L174.4 117.6 L174.4 117.2 L174.2 117 L173.5 117.1 L172.4 116.9 L172.2 117.1 L171.8 117.1 L171.5 117.4 L171.1 117.5 L170.4 117.4 L169.6 117.5 L169.3 117.2 L169.2 116.9 L168.5 116.5 L168.4 116.3 L167.3 116.3 L167 116.1 L166.3 115.9 L166.2 115.7 L165.9 115.8 L165.6 115.6 L165.2 115.3 L165.2 114.9 L165 114.8 L165.3 114.2 L165 114.1 L165 113.9 L164.6 113.9 L164.5 113.6 L164.3 113.5 L164 113.7 L163.7 113.7 L163 113.3 L163 113.1 L162.6 112.9 L161.8 112.7 L161.5 112.8 L161.1 112.5 L160.9 112.5 L160.7 112.3 L160.1 112.3 L159.4 112 L159.3 111.8 L159.8 111.6 L159.9 111.3 L160.5 110.9 L160.5 110.7 L160.3 110.8 L160 110.4 L159.3 110.2 L159.1 110.3 L158.5 110 L158.1 109.9 L157.9 109.7 L158.1 109.7 L157.8 109.5 L157.7 109.3 L157.3 109.2 L157.5 108.8 L157.8 108.8 L158 108.6 L158.6 108.6 L158.5 108.4 L158.9 108.3 L158.6 108.2 L158.6 107.9 L158.2 107.6 L158.4 107.4 L158.3 107.3 L158.5 107.1 L158.3 106.8 L158 106.7 L158 106.5 L157.8 106.4 L157.5 106.5 L156.9 106.5 L156.7 106.7 L156 106.7 L155.7 106.8 L155.2 106.8 L155 106.9 L155.2 107.2 L154.5 107.4 L154.1 107.2 L153.3 107.1 L152.7 107.1 L152.4 106.8 L151.5 106.7 L151.3 106.9 L150.5 106.8 L150 106.9 L149.4 106.9 L149.1 107.1 L149.1 107.5 L149 107.6 L148.4 107.9 L148 108.2 L148 108.5 L148.2 109.1 L148.5 109.2 L148.8 109.5 L148.8 109.7 L148.4 109.9 L148.2 110.1 L148.5 110.6 L148.4 110.7 L147.7 111.2 L147.6 111.4 L147.2 111.5 L147.1 111.7 L146.7 112 L146.6 112.4 L145.1 112.9 L144.8 112.8 L144.1 112.8 L143.7 113.2 L143.3 113.3 L141.7 113.3 L140.5 113.3 L139.3 113.5 L139 113.6 L138.4 114.2 L138.4 114.5 L138.3 114.9 L137.9 115.2 L137.8 115.5 L137.4 115.6 L137.3 115.9 L137.1 116.2 L137.1 116.6 L136.9 116.9 L137.1 117.3 L137.7 121.5 L137.7 122 L138.3 122.6 L138.5 123 L138.3 123.6 L138.5 123.9 L138.3 124.3 L138.3 124.5 L137.9 124.9 L137.4 125.2 L137.1 125.7 L137.1 126 L136.1 126 L135.3 126.1 L135 126.1 L134.6 125.9 L134 126.2 L133.6 126.6 L133 126.8 L132.8 127.1 L131.9 127.3 L131.8 127.6 L131.6 127.8 L131.4 127.8 L130.8 127.2 L130.6 127 L130 126.7 L129.7 126.5 L129.3 126.5 L129 126.6 L128 126.6 L127.5 126.8 L126.7 126.5 L126.2 126.6 L125.9 126.5 L125.5 126.6 L124.6 126.5 L124.2 126.8 L123.6 126.9 L123.2 126.8 L122.8 126.6 L122.4 126.7 L122.2 126.8 L121.8 126.7 L120.7 126.3 L120 126.4 L120 126.3 L118.9 126 L118.8 125.8 L118.6 125.8 L117.9 125.3 L117.4 125.5 L117 124.9 L116.6 125 L116.4 124.9 L116 125 L115.6 124.8 L115.5 124.6 L115.2 124.5 L115 124.4 L114.6 124.5 L113.8 124.6 L113.9 125 L113.5 126 L113 126.4 L112.9 127.2 L112.4 128.2 L112.5 128.4 L112 128.7 L111.6 129.5 L111.5 130.2 L111.1 131.2 L110 133.1 L109.1 134.4 L108.6 136 L108.1 136 L107.5 136.4 L107.5 136.9 L107.6 137.4 L107.5 137.9 L107 138.4 L107 139 L106.8 139.3 L107 140 L108.5 140.7 L109.4 141.1 L109.9 141.8 L109.8 142.9 L109.6 143.1 L108.9 143.3 L107.5 143 L107.1 142.7 L106.3 142.8 L105.4 143 L105.2 142.9 L105.2 142.7 L104.9 142.6 L104.3 142.8 L103.6 142.8 L103.3 142.4 L102.8 142.1 L102.4 141.5 L101.4 141.7 L101.1 141.7 L100.5 141.9 L100.4 142.2 L100.1 142.2 L100 142.4 L99.4 142.6 L99.2 142.4 L98.8 142.5 L98.7 142.6 L98.2 142.6 L97.8 142.8 L97.3 142.7 L96.8 142.9 L96.7 143.1 L96.2 143 L95.9 143.3 L95.4 143.5 L94.8 143.4 L94.5 143.5 L94.2 143.8 L93.9 143.8 L93.5 143.6 L92.7 143.6 L92.2 143.8 L91.4 144 L90.7 144 L90.5 143.8 L90 144.1 L90 144.3 L89.7 144.5 L89.2 144.6 L88.9 144.4 L88.6 144.4 L88.2 144.7 L87.7 144.7 L87.3 144.5 L87.2 144.6 L87 144.5 L86.5 144.8 L86.4 144.9 L85.7 145.3 L85.5 145.4 L85.4 145.6 L84.9 145.8 L85.6 146.1 L85.5 146.4 L85.8 146.6 L85.9 146.9 L86.7 146.7 L87 146.7 L87.5 146.4 L87.7 146.6 L87.6 146.9 L87.8 147.2 L88.1 147.6 L88.8 147.7 L89.6 148.4 L89.7 148.6 L89.2 149.8 L89.5 150.5 L89.6 151.4 L89.7 151.8 L89.6 152.4 L89.7 152.8 L89.6 153 L90.1 153.5 L90.2 153.8 L90.1 154.4 L90.4 154.6 L90.3 154.8 L90.6 155.1 L90.7 155.9 L92.9 158.9 L92.9 159.3 L92.8 159.4 L92.7 159.8 L92.2 160.4 L92.3 160.5 L93.1 160.6 L93 161 L93.2 161.2 L93.2 161.6 L93.3 161.8 L93.2 162.2 L92.9 162.1 L92.7 162.2 L92.4 162.1 L91.9 162.1 L91.4 162.2 L91 162.5 L90.4 162.8 L89.8 162.9 L89.4 163.2 L89.6 163.5 L90.4 163.9 L91.4 164.1 L91.5 164.4 L90.6 164.5 L90.1 164.7 L89.7 165 L89 165 L88.5 164.9 L88.3 165 L88.3 165.4 L88 166.1 L88 166.3 L87.6 166.5 L87.4 166.9 L87.6 167.2 L88 167.7 L88.4 168 L88 168.2 L87.8 168.7 L88.1 169.1 L88 169.4 L88.5 169.7 L88.4 170.1 L88.6 170.3 L88.6 170.5 L88.1 170.7 L87.5 170.8 L87.4 171.3 L87.2 171.3 L87.5 171.8 L87.7 171.9 L87.2 172.3 L86.7 172.2 L85.2 172.3 L84.6 172.5 L84.6 172.8 L84.3 173 L83.9 173.7 L83.4 173.6 L82.6 173.7 L82.4 174 L81.8 174.2 L81.3 174.2 L80.9 174.1 L80.5 174.2 L80 174.5 L79.7 174.4 L79.3 174.7 L79.2 174.8 L78.7 175.2 L78 175.2 L77.7 175.5 L77.1 175.6 L76.9 175.8 L76.6 175.8 L76.3 175.9 L75.7 176.4 L75.5 176.4 L75.1 176.7 L74.3 176.8 L73.9 176.9 L74 177.1 L73.7 177.3 L73.5 177.6 L72.8 177.4 L72.3 177.8 L71.7 178.1 L71.1 178.1 L71 178.2 L70.6 178.2 L70.5 178.3 L69.6 178.2 L69 178.3 L68.9 178.5 L69 178.7 L68.7 179.3 L68.7 179.8 L68.4 179.8 L67.2 180.3 L66.6 180.2 L66 180.5 L65.8 180.6 L65.7 181 L65.9 181.3 L65.6 181.4 L65.5 181.7 L65.1 181.6 L64.6 181.8 L64.3 181.7 L63.8 181.8 L63.7 182 L63.2 181.8 L62.6 181.9 L62.6 181.7 L62.1 181.5 L61.6 181.5 L61 181.8 L60.4 181.6 L59.8 181.8 L59.3 181.5 L59.1 181.3 L58.5 181.3 L58.3 181.2 L57.7 181.6 L57.2 181.6 L56.9 182.1 L56.6 182.1 L56.1 182.3 L55.9 182.7 L55.8 183.6 L55.4 183.9 L55 184.1 L55 184.3 L55.3 184.7 L55.1 185.1 L55.1 185.4 L54.7 185.6 L54.6 185.8 L54.2 186.1 L54 186.4 L54 186.8 L53.7 187.1 L53.4 187.2 L53.1 187.5 L52.6 187.6 L52.6 187.5 L52.1 187.9 L52.1 187.5 L51.6 187.3 L51.6 187.1 L51.1 187.4 L50.7 187.6 L50.4 187.5 L49.8 187.5 L49.5 187.5 L49.5 187.8 L49.3 187.8 L48.9 187.6 L48.4 188 L48.3 188.4 L48 188.3 L47.6 188.2 L47.5 188.1 L47.1 188.3 L46.6 188.3 L46.4 188.5 L46.2 187.9 L46 187.8 L46.1 187.3 L46.4 187 L46.6 186.7 L45.8 186.3 L45.6 186 L45.6 185.5 L45.7 185.4 L45.3 185 L44.9 185.1 L44.1 185.6 L43.8 185.9 L43.1 186.1 L42.5 186.6 L42.3 186.6 L42 187 L41.7 187 L41.1 186.8 L40.8 187 L40.3 187 L40 186.8 L39.8 186.9 L39.5 186.8 L38.8 186.4 L38.4 186.3 L38.1 186.4 L38.1 186.9 L37.9 187 L39 188 L38.5 188.1 L38.2 187.9 L37 187.9 L37 188.2 L36.8 188.5 L36.3 188.5 L35.9 188.7 L35.5 189.2 L35.1 189.4 L34.6 189.9 L33.9 190.3 L33.5 190.1 L33.2 190.2 L33 190 L31.8 190.1 L31.6 190.3 L30.8 190.3 L30.7 190.6 L30.1 191 L30.4 191.1 L29.8 191.7 L29.7 192.3 L29.2 192.7 L29.1 193.4 L29.7 193.5 L29.9 193.7 L30.2 194.8 L29.8 194.9 L29.8 195.1 L29.5 195.3 L29.6 195.5 L29.4 195.9 L29.1 196 L28.2 196.1 L27.3 196 L27 196 L26.8 196.5 L26 196.8 L26.5 197.1 L26.5 197.6 L26.4 197.8 L26.6 197.9 L26.7 198.1 L27.1 198.2 L27.3 198.3 L27.4 198.8 L27.7 198.9 L28 199.3 L28 199.7 L28.2 200.1 L28.6 200.1 L28.9 199.9 L29.1 200.3 L29.2 200.7 L29 201.1 L28.4 200.9 L28.2 200.9 L27.9 201.3 L27.8 201.6 L28.1 201.8 L28.5 202.4 L28.4 202.9 L28.8 203.7 L28.7 203.9 L29.2 204.2 L29.7 204.2 L29.9 204.6 L30.7 204.7 L30.9 204.6 L31.4 204.6 L31.2 204.2 L31.4 203.9 L31.6 203.9 L32 203.3 L32.7 203.5 L33.8 203.5 L34.5 203.6 L34.8 203.7 L35.3 203.7 L35.6 203.9 L36.2 204.1 L36.5 204 L37.2 204.6 L37.8 204.6 L38.2 205 L38.5 205.1 L38.6 205.8 L38.3 206.2 L37.9 206.6 L38 206.9 L37.9 207.1 L38.1 207.6 L38 208 L38.2 208.6 L38.7 209.4 L39.1 209.4 L39 209.9 L39.1 210.4 L39.2 210.7 L39 211 L39.7 211.4 L39.9 211.7 L39.3 212.1 L39.1 212.2 L39.1 212.5 L38.8 212.6 L39.3 213.6 L39.8 213.9 L39.8 214.1 L40.1 214.2 L40.5 214.1 L40.6 214.3 L41 214.5 L41.2 215 L41 215.2 L41.1 215.5 L41 215.8 L40.5 215.8 L40 216.1 L39.1 216.2 L39 216.6 L38.1 216.8 L38 216.5 L37.5 216.2 L37.3 216.2 L36.7 216.6 L36.5 216.4 L36.1 216.4 L35.9 216.6 L35.6 216.5 L35.3 216.6 L35 216.9 L35.1 217.3 L34.9 217.4 L35.2 217.7 L35.2 218.1 L35.5 218 L35.8 218.5 L36.3 218.4 L36.4 218.2 L37.1 218 L37.4 218.5 L37.9 218.5 L38 218.3 L38.4 218.2 L38.4 218.6 L38.6 218.9 L38.8 219.3 L39.2 219.3 L39.1 219 L39.9 218.8 L40.1 218.6 L40.4 218.7 L41.4 218.6 L41.4 218.8 L42.1 219.1 L42.5 219 L43 219.1 L43.6 219.2 L43.5 219.7 L43.8 219.9 L43.8 220.3 L43.7 220.8 L44 221.3 L44.5 221.1 L44.8 221.3 L44.8 220.9 L45.2 221 L45.7 220.9 L46.5 221.1 L47.3 221.5 L47.8 221.8 L48.5 222.5 L48.3 222.8 L49 223.3 L49.4 224.2 L49 224.7 L49 225.1 L49.5 225.7 L49.6 225.9 L49.1 225.9 L49.2 226.5 L48.7 226.5 L48.4 226.8 L48.6 227.3 L48.9 227.7 L49.3 227.8 L49.4 227.7 L49.9 227.8 L50.1 228.2 L50.6 228.8 L50.4 229.5 L50.5 229.6 L51.1 229.6 L51.1 229.5 L51.8 229.5 L52.4 229.6 L52.4 229.3 L53 229.4 L53.4 229 L53.8 229.1 L54.2 228.7 L54.5 229 L54.4 229.2 L54.5 229.5 L54.3 229.7 L54.5 230.1 L55.4 230.3 L56.1 231.2 L56.9 231.1 L57.4 231.5 L58 231.8 L58.2 231.6 L58.9 231.8 L59.1 232 L60.1 232.4 L61.1 232.2 L61.3 232.3 L61.5 232.7 L61.9 232.9 L62.4 233 L63 232.8 L63.6 232.8 L63.7 233 L64.2 233 L64.3 232.8 L64.6 233.1 L65 233 L65.2 232.6 L65.6 232.7 L65.8 232.4 L66.2 232.7 L66.3 232.7 L66.7 232.9 L66.7 232.7 L67 232.8 L67.6 232.7 L67.7 232.9 L67.9 232.7 L68.8 232.7 L68.5 232.9 L68.5 233.2 L67.9 233.7 L67.6 233.8 L67.7 234.3 L67.6 235.1 L68 235.6 L68.1 236.2 L68.2 236.3 L68.6 236.2 L68.9 236.6 L68.6 236.9 L69 237.3 L69.3 237.5 L69.2 237.8 L69.4 238.2 L69.7 238.3 L69.6 239.3 L69.5 239.4 L69.4 239.8 L69.9 239.9 L69.9 240.4 L70.1 240.7 L70.7 240.9 L71.1 240.9 L71.4 241 L71.5 241.4 L72 241.1 L72.5 241.1 L72.6 241.3 L72.7 241.7 L72.8 241.8 L73.3 241.5 L74 241.6 L74.1 241.8 L74.5 242 L74.3 242.2 L74.9 242.4 L75.6 242.8 L75.8 243.2 L76.3 242.9 L76.5 243.1 L77.1 243.4 L76.9 243.5 L76.5 243.5 L76.3 244.3 L76.2 244.5 L76 245 L75.9 245.1 L75.6 244.9 L75.1 245.3 L74.9 245.2 L74.3 245.6 L73.6 245.6 L73.5 246.2 L74.3 246.4 L74.3 246.6 L74.2 247.2 L74.5 247.3 L74.5 247.6 L74.5 248.1 L74.5 248.4 L74.7 248.9 L73.9 249.4 L73.8 249.6 L74.1 249.9 L74.4 249.9 L74.3 250.6 L75 251.2 L75.3 251.8 L75.7 251.9 L76.2 252.2 L76.4 252.6 L76.9 252.7 L77.1 253.2 L77.5 253.4 L77.4 253.6 L77.7 253.8 L78.1 254 L78.2 254.1 L78 254.6 L78.2 255.6 L78.6 256 L79.1 256.2 L78.8 256.7 L78.9 257.1 L78.8 257.6 L79.2 257.7 L79.5 258.2 L79.2 258.6 L79.5 259 L79.5 259.4 L79.2 259.7 L79 260.1 L78.5 260.2 L78.4 260.3 L77.9 260.5 L77.8 261 L77.6 261.5 L77.3 261.4 L76.8 261.4 L76.4 261.8 L75.8 261.4 L75.5 261.1 L75 260.9 L74.7 260.5 L74.5 259.7 L74.7 259.3 L74.3 258.8 L74.3 258.4 L73.8 258.6 L73.7 258.8 L73.3 259.1 L72.9 259 L72.8 259.2 L72.3 259.3 L72.1 259.5 L71.4 259.7 L71.1 260 L71.4 260.2 L71.8 260.9 L71.7 261.4 L71.9 261.6 L71.9 261.8 L72.2 262.1 L71.9 262.7 L71.4 262.9 L71.4 263.1 L71.8 263.7 L72.2 263.5 L72.3 263.8 L73.1 264.4 L73.1 264.7 L74 265 L74.5 265.4 L74.6 265.6 L74.3 265.9 L73.6 266.3 L73.5 266.6 L74 266.9 L74.5 267.9 L74.8 267.9 L74.9 268.2 L75.3 268.5 L75.2 268.7 L74.7 269.1 L74.3 269.2 L74.2 269.7 L74.4 269.7 L74.8 270.1 L74.5 270.5 L74.4 270.8 L74.8 271.3 L75.4 271.4 L75.5 271.2 L75.6 271.5 L76 271.8 L76.1 272.1 L76.7 272.6 L76.5 273 L76.8 273.7 L77.2 273.8 L77.6 274.2 L78.4 274 L78.6 274.1 L78.8 274.6 L79.8 274.4 L79.6 273.9 L80 273.8 L80.4 273.4 L80.6 273.5 L80.6 273.9 L81.4 273.8 L81.8 274.5 L82.2 274.8 L82.8 274.5 L82.9 274.3 L83.4 274.6 L83.7 274.7 L84.4 275.5 L84.9 275.4 L85.1 275.6 L85 276 L85.6 276.2 L85.5 276.5 L85.6 277 L86 277.2 L86.3 277.8 L87.2 278.2 L87.9 277.9 L88.3 278.1 L88.9 278.1 L89.2 278.5 L89.9 278.6 L90 278.8 L90.6 278.9 L91 279.2 L91.3 279 L91.8 279.1 L92.3 279.5 L92.6 279.5 L93.5 280.4 L94.3 280.5 L94.5 280.9 L95.1 280.9 L95.5 281 L95.5 281.4 L95.9 281.9 L95.9 282.4 L96.2 282.5 L96 282.8 L96.4 283.2 L97.2 283.3 L97.5 283.2 L97.4 283 L97.8 282.8 L97.8 282.5 L97.6 281.9 L98.2 281.9 L98.8 281.5 L98.8 281.1 L99 280.8 L98.9 280.6 L99.1 280.5 L98.8 280.4 L98.9 279.9 L99.1 279.8 L98.9 279.6 L99 279.4 L99.3 279.5 L99.7 279.8 L100.3 279.9 L100.4 279.4 L100.8 279.5 L101 279.2 L101.8 279.6 L102.1 279.8 L103.2 279.9 L103.8 280.1 L103.9 280 L104.3 280.3 L104.6 280.2 L104.9 280.3 L105.3 280.1 L105.6 280.5 L105.5 280.8 L105.4 281.2 L105.7 281.5 L106.1 281.6 L106.3 282 L106.1 282.2 L106 282.7 L106.6 282.7 L107.2 283 L107.4 282.9 L107.8 283.2 L108.2 283.2 L108.3 283.4 L108.7 283.6 L109 283.8 L109.5 283.7 L110 284.4 L110.3 284.5 L110.1 284.9 L110.9 284.7 L111.2 285.1 L110.7 285.5 L111.3 285.5 L111.5 285.8 L111.9 285.9 L112 286.2 L112.5 286.2 L113.1 286 L113.3 286.5 L113.7 286.4 L114.4 287 L114.8 286.8 L115.1 286.9 L115.1 287.1 L115.6 287 L116 287.3 L116.1 287.9 L116.6 287.9 L117.1 288.7 L117.4 288.7 L117.5 289.2 L117.7 289.5 L117.9 289.9 L118.1 290 L118.6 290.7 L118.9 290.7 L119.1 290.9 L119.6 291 L119.7 290.7 L120.3 290.3 L121 290.2 L121.2 289.8 L121.4 289.8 L122 289.6 L122.3 289.7 L122.7 289.6 L122.8 289.9 L123.3 289.8 L123.9 289.9 L124 290.3 L124.7 290.3 L124.6 290.6 L124.4 290.8 L124.4 291.3 L124.7 291.5 L124.6 291.8 L124.6 292.1 L124.9 292.1 L125.1 292.3 L124.9 293 L125 293.6 L125.3 293.5 L125.9 293.8 L125.9 293.8 L126.6 293.9 L126.5 294.1 L126.8 294.2 L126.9 294.7 L127.3 295 L127.9 294.9 L128.5 295 L128.8 295.2 L129 295.5 L129.3 295.6 L129.2 295.9 L129.9 296.1 L130.7 296.5 L131.1 296.4 L131.9 296.4 L132 296.1 L132.6 295.5 L133.2 295.5 L133.5 295.8 L133.8 296 L133.7 296.4 L133.8 296.7 L133.5 297.2 L133 297.5 L133.2 298.3 L133.1 298.6 L133.7 298.8 L134 298.6 L134.5 299.2 L135.3 299 L135.5 299.2 L135.9 298.8 L136.3 298.7 L136.8 298.8 L137.6 299 L137.6 299.4 L138 299.2 L138.3 298.3 L138.7 298.3 L139 299.7 L139.3 300 L139.9 300.2 L140.1 300.6 L140.3 300.8 L140.3 301.3 L141.1 301.9 L140.8 302.3 L141.3 302.6 L141.7 302.7 L142.4 302.5 L142 301.6 L142 300.9 L142.4 301 L142.5 300.7 L143 300.2 L143.3 300.9 L143.2 301 L143.4 302 L143.8 302 L144.1 302.2 L144.9 302.4 L145.1 302.6 L145.4 302.6 L145.6 302.3 L146 302.2 L146 301.8 L146.2 301.4 L146.4 301.3 L146.5 300.8 L146.8 300.9 L146.9 301.1 L147.2 301.1 L147.4 300.9 L147.7 300.8 L148.1 300.9 L148.3 301.1 L148.2 301.5 L148.9 301.7 L149.2 301.6 L149.4 301.8 L149.8 301.9 L149.9 302.2 L150.8 302.3 L151.2 302.6 L151.6 303.2 L152.1 303.4 L152.6 303.5 L152.8 303.2 L153.1 303.2 L153.4 303.4 L153.8 303.4 L154.4 303.1 L154.3 303.4 L154.7 303.4 L155.8 303.1 L156 303.5 L156.7 303.3 L156.6 303.5 L157.2 303.6 L157.6 303.1 L157.7 302.8 L158.1 302.4 L159.1 302.6 L159.5 302.8 L160 302.7 L160.5 302.8 L160.7 303 L161 302.9 L160.8 302.6 L161.1 302.2 L161.6 302.3 L161.9 302.1 L162 302.3 L163 301.9 L163.4 302 L163.7 301.7 L164 301.7 L164.3 301.4 L164.8 301.5 L164.9 301 L165.4 300.9 L165.6 300.7 L165.9 301.1 L166.7 301.1 L167.2 301.6 L167.5 301.7 L167.5 302.5 L167.7 302.5 L167.9 303.2 L167.7 303.5 L167.7 304.1 L167.5 304.4 L167.6 304.8 L167.2 305.1 L167.2 305.4 L166.8 305.8 L167.1 306.2 L166.9 306.7 L167.2 307.2 L167.4 307.5 L167.7 307.5 L168 308 L168.2 308 L168.1 308.5 L168.4 308.6 L168.8 309.1 L169.5 308.8 L169.6 308.3 L170.3 308 L170.6 307.5 L170.1 306.9 L169.8 306.6 L169.9 306 L170.4 305.7 L170.1 305.4 L170.1 305.2 L170.6 304.8 L171.1 303.6 L171.6 303.2 L172.4 302.9 L173 302.1 L173.2 301.5 L173.6 301 L173.9 301 L174.5 300.3 L175.6 300.2 L176.1 300 L176.2 299.5 L176.9 299.7 L177.2 300.1 L177.9 300 L178.3 300.3 L178.4 300.5 L178.8 300.3 L179.1 300.5 L179.3 300 L179.7 300 L179.9 300.3 L180.3 300.4 L180.9 300.4 L181.5 300.9 L181.7 301.2 L182.2 301.2 L182.6 301.4 L182.9 301.2 L183.4 301.4 L183.6 301.6 L184.6 301.1 L185 301.3 L185.5 301.4 L185.6 301.6 L186 302.1 L186.4 302.3 L187 302.2 L187.1 302.4 L187 302.7 L187.6 303.1 L188.4 303.2 L188.8 302.7 L188.7 302.4 L188.9 302.1 L189.4 301.9 L189.7 302 L190.2 301.2 L191.6 301.7 L191.9 302 L191.8 302.3 L192.5 302.6 L193 302.8 L193.1 303.1 L192.5 303.1 L192.4 303.4 L193 303.4 L193.3 303.9 L193.1 304.6 L192.6 305 L192.5 305.2 L192.7 305.5 L192.6 305.6 L192.8 306 L193.1 306.3 L193.5 306.3 L194 306.7 L194.3 306.7 L195.1 306.5 L196.1 306.7 L196.7 306.6 L196.8 306.9 L197.2 307.4 L197.7 308.5 L197.4 308.6 L197.2 308.8 L197.1 309.2 L196.9 309.4 L196.8 310 L197 310.5 L197.3 310.6 L197.7 311.4 L197.6 312.3 L198.4 312.2 L199.2 312 L200.3 311.9 L201.2 311.7 L201.6 311.5 L202.5 311.4 L202.9 311.5 L204 312 L205 311.8 L206.3 312.1 L206.8 312.1 L207.9 311.9 L211 311.6 L211.6 311.4 L212.7 310.8 L213.3 310.8 L213.6 310.6 L213.6 309.4 L214.8 308.2 L215.5 307.5 L216.4 306.8 L217.1 306 L217.6 305.6 L218.3 305.7 L218.7 305.6 L219.1 305.6 L219.4 305.4 L219.9 305.5 L221.1 305 L221.7 304.7 L222.2 304.5 L222.7 304.3 L223.2 304.1 L223.8 303.7 L224.4 303.3 L224.9 303.2 L226.9 302.3 L227.3 301.6 L227.5 301.4 L227.7 300.8 L227.9 300.5 L228.3 300.3 L229.1 300.1 L230.5 299.4 L231.1 299.2 L231.5 299.3 L231.9 299 L232.3 299 L232.5 299.2 L232.6 299.5 L232.9 299.6 L233.4 299.9 L234.2 300 L234.4 299.8 L235.3 299.8 L236 299.7 L236.2 300.5 L236.9 300.7 L237.1 300.7 L237.1 300.4 L237.4 300.3 L237.7 300.4 L238.1 301.1 L238.4 301.1 L239.2 301.5 L239.3 301.8 L239.8 302.2 L240 302.2 L240.7 302.4 L240.9 302.8 L241.3 302.9 L241.8 302.8 L242.4 303 L242.8 303.5 L243.1 303.5 L243.3 304.1 L243.6 304.2 L243.6 303.8 L244.2 303.5 L245 302.8 L245.5 302.6 L245.7 302.9 L246.3 302.8 L246.1 302.6 L246.2 302 L246.5 301.6 L246.2 301.5 L246.2 301.2 L245.6 301.3 L245.5 301.1 L245.8 300.8 L245.7 300.5 L245.9 300.4 L246 299.9 L245.9 299.6 L246.4 299.6 L246.4 299.2 L246.6 299 L246.9 299.3 L247 299 L247.5 298.7 L247.2 298.6 L247.2 298.2 L247.3 297.8 L247.5 297.7 L247.4 297.5 L247.5 297.2 L247.9 296.8 L248.3 297 L248.5 296.9 L249 297 L249.5 297.5 L249.5 298.1 L249.8 298.3 L250.1 298.8 L250.5 298.8 L250.7 298.4 L251.1 298.4 L252.1 299.4 L252 299.8 L252.2 300 L252.4 299.9 L252.7 300 L252.8 300.2 L253.2 300.5 L253.4 300.8 L253.1 301.9 L253.2 302.2 L253.6 302.3 L253.8 302.8 L253.5 303.1 L253.9 303.5 L254.1 304.6 L254.5 305 L254.8 305.6 L254.8 306.2 L255 306.3 L255.5 306.2 L255.9 305.9 L255.9 305 L256 304.9 L256.3 305.1 L256.8 305.3 L257 305 L257.3 305.6 L257.3 305.7 L257.9 305.8 L258 305.6 L258.4 305.9 L258.2 306.5 L258.4 306.7 L258.2 307.1 L258.4 307.2 L258.4 307.7 L258.7 307.9 L258.7 308.3 L258.5 308.5 L258.6 309 L258.3 309 L258.5 309.7 L258.5 310.3 L259 310.5 L258.9 310.8 L258.7 311 L258.9 312.1 L258.6 312.4 L258.9 312.8 L258.8 313.8 L259 313.8 L258.9 314.1 L259.1 314.5 L259 314.9 L258.9 315.1 L258.9 315.7 L258.7 316.2 L258.8 316.3 L258.7 317 L258.2 317.4 L258.1 318 L258.5 318.1 L258.7 318.5 L258.5 318.8 L258.6 319 L258 319.4 L258 318.9 L257.7 318.9 L257.2 319.1 L257.5 319.7 L257.6 320.5 L257.8 320.5 L258.2 320.9 L258.4 321.5 L258.2 321.9 L257.8 322.1 L257 321.6 L256.8 321.7 L256.3 322.3 L256.2 322.7 L256.1 323.1 L255.7 323.3 L255.6 324 L254.9 324.2 L254.8 324.4 L254.2 323.8 L253.5 323.7 L253.7 324.2 L253.4 324.6 L253.1 324.7 L253.4 325.2 L253.2 325.9 L252.8 325.9 L252.8 326.2 L252.6 326.6 L252 326.7 L252 326.9 L251.4 327.5 L251 327.4 L250.8 327.1 L250.4 326.9 L250 328 L249.5 328.7 L249.3 328.7 L249.4 329 L249.3 329.6 L249.4 330.3 L249.9 330.6 L250 330.9 L249.7 331.1 L249 331 L248.7 331.4 L247.9 331.6 L247.7 331.8 L247.9 332.1 L248 333.1 L247.8 334.1 L247.6 334.6 L248.1 334.6 L248.9 334.5 L249 335 L249.3 335.3 L248.8 335.5 L248.8 335.9 L249.3 335.9 L249.8 336.3 L249.4 336.6 L249.4 337 L249.6 337.1 L249.6 337.2 L249.5 337.2 L249.4 337.6 L249.2 337.8 L249.1 337.8 L248.6 338.2 L248.5 338.6 L248 338.8 L247.6 339.2 L247.6 339.3 L248.4 339.7 L248.6 339.9 L248.7 340.1 L249 339.8 L249.3 339.9 L249.4 339.6 L249.7 339.5 L250 339.1 L250.2 339.2 L250.7 338.9 L251 338.9 L251 338.5 L251.8 338.4 L251.9 338.2 L252.8 337.9 L252.8 337.9 L253 337.8 L253.1 337.8 L253.1 337.8 L253.7 337.7 L253.9 337.6 L255.1 337.7 L255.4 337.6 L256.4 337.5 L256.4 337.5 L257 337.5 L257.4 337.9 L257.9 337.7 L258.2 337.7 L258.5 337.5 L259.5 337.4 L259.7 337.5 L260 337.3 L260.2 337.7 L259.4 338.4 L259 338.4 L258.6 338.9 L258.4 338.8 L258.1 339 L258.4 339.2 L258.2 339.6 L258.4 340.2 L258.1 340.5 L258.3 340.6 L259.1 340.7 L259.5 341.2 L259.4 341.4 L259.6 341.6 L259.7 342 L260 342.2 L260 342.4 L259.7 342.5 L259.3 342.9 L259.5 343.5 L260 343.4 L260.3 343.9 L260.4 344.5 L260 344.8 L260.3 344.8 L260.6 345 L260.5 345.4 L260.1 345.9 L260.3 346.2 L261.2 346.4 L261.7 346.4 L261.6 346.8 L262.1 347.1 L262.9 347 L263.5 347.2 L263.7 346.9 L264.3 346.7 L264.6 347 L265.2 347.1 L265.5 347.1 L266 347.3 L265.9 347.8 L266.1 348.2 L266.3 348.6 L266 348.8 L265.3 348.5 L265.2 348.7 L265.4 349.3 L264.8 349.5 L264.7 350.1 L264.1 350.2 L264 350.3 L264.3 350.6 L264.7 351.8 L264.4 352.2 L264.7 352.5 L263.9 353.3 L263.5 353.5 L263.7 353.9 L263.3 354.4 L263.3 354.8 L263.1 355 L262.8 355.4 L262.9 355.6 L262.6 355.6 L263.2 356.1 L263.9 356.1 L264.4 356.2 L264.8 356.2 L265.6 355.9 L265.9 356.2 L266.3 356.1 L266.5 356.2 L266.5 356.1 L267.1 356.2 L267.6 356.5 L268.2 356.5 L269.2 356.8 L269.2 356.5 L270.1 356.6 L270 357 L270.4 357.3 L270.2 357.8 L270 358 L269.8 358.7 L270.3 359.8 L270.8 360.1 L271.2 359.8 L271.6 359.9 L271.9 360.2 L271.4 360.9 L271.5 361.1 L271.6 361.7 L271.9 361.9 L272.1 361.6 L272.3 361.6 L272.5 362 L273.1 361.9 L273.6 361.4 L274.4 361.4 L274.8 362.1 L275.2 362 L275.7 362.2 L276.7 361.6 L277.1 361.5 L277.3 361.2 L277.6 361.1 L277.8 360.7 L278.2 360.5 L278.4 360.1 L278.6 360 L278.6 360 L279 359.9 L279 359.9 L279.7 359.8 L280.4 359.2 L280.7 359.2 L280.6 359.4 L280.7 359.9 L281 360.1 L281.1 360.9 L280.9 361.2 L281.5 361.2 L281.5 361.6 L281.7 361.7 L281.4 362 L281.4 362.4 L280.9 362.5 L281.3 363.2 L281.8 363.5 L281.9 363.8 L281.6 364.2 L282.3 364.7 L283.2 364.2 L283.6 364.2 L284.5 364 L285.1 364.2 L285 364.6 L285.2 364.7 L285.8 364.5 L286.1 365 L286.6 365 L286.9 364.4 L287.3 364.4 L287.3 364 L286.9 363.7 L286.5 363.6 L286.3 363.2 L286.5 362.5 L286.4 361.9 L286.7 361.6 L286.5 361.4 L286.5 360.9 L287 361 L287.2 360.6 L287 360.4 L286.8 360.4 L286.7 359.7 L286.5 359.6 L286.7 358.6 L286.4 358.5 L286.4 358.2 L286 358 L286 357.7 L285.7 357.7 L285.2 357.4 L285.4 357 L284.9 356 L285.1 355.9 L285.1 355.6 L284.6 354.9 L284.8 354.6 L285.3 354.5 L285.8 353.7 L285.6 353.4 L285.8 352.7 L286.2 352.7 L286.7 352.4 L287.2 352.9 L287.2 353.2 L287.5 353.5 L287.9 353.6 L287.9 353.1 L288.6 353.2 L289.2 352.9 L290 353.1 L290.1 353.4 L290.5 353.1 L291.3 353.2 L291.2 352.9 L291.8 352 L292.1 351.9 L292.5 351.3 L292.3 350.8 L292.8 350.6 L293 350.1 L293.5 350 L293.9 350.2 L294.1 350.6 L294.4 350.4 L294.9 350.8 L295.1 350.6 L296.2 351.4 L296.4 351.4 L296.9 351.7 L297 352.2 L297.4 352.7 L297.9 352.7 L298.3 353 L298.8 352.9 L298.7 352.6 L299.7 351.9 L299.5 351.7 L299.8 351.1 L300.1 351.2 L300.6 350.8 L300.7 350.3 L301 349.9 L301 349.7 L301.5 349.8 L302.1 350.2 L302 350.7 L302.2 351 L302.7 351.6 L302.9 351.6 L303.4 350.9 L303.3 350.6 L303.9 349.8 L304.8 350.6 L304.9 350.7 L305.1 350.8 L305.6 351.4 L306 351.7 L306.1 351.9 L306.3 351.9 L306.9 352.5 L307.3 352.3 L307.3 351.8 L307.4 351.6 L307.6 350.9 L307.7 350.4 L308.1 350 L308.3 349.6 L309.3 349.5 L309.7 349.3 L309.8 349.5 L309.6 350 L309.8 350.3 L310.2 350.4 L310.7 350.7 L311.1 350.3 L311.8 350 L312.1 349.6 L312.7 349.3 L313.5 349.6 L314 349.5 L314 349.2 L314.3 349.1 L314.4 348.9 L315 348.6 L315.2 348.1 L314.8 347.6 L314.7 346.9 L315.3 346.7 L315.4 346.4 L315.7 346.3 L316 346.5 L316.1 346.1 L317.3 345.5 L317.6 345.6 L318.1 345.3 L318.7 345.4 L318.9 344.9 L319.5 344.3 L319.7 344.5 L319.9 344.9 L320.3 345.3 L320.6 345.2 L321.1 346 L321.5 346.2 L321.6 346.2 L321.8 347.3 L322.2 347.3 L322.4 347.2 L323.1 347.3 L323.3 347.6 L323.7 347.7 L323.9 347.9 L324.2 348 L324.6 348.6 L324.7 348.5 L325.3 348.4 L325.6 348.5 L325.9 348 L326.5 347.9 L326.7 348.1 L327.1 348 L327.6 348.1 L328.2 348.7 L328.1 348.9 L328.3 349.1 L329.1 349.2 L329.1 349 L329.5 349 L330.3 348.7 L330.5 348.4 L330.9 348.6 L331.3 348.6 L331.5 349 L331.7 349.1 L331.9 348.9 L332.3 349 L332.2 349.1 L332.8 349.6 L332.8 349.6 L332.9 349.6 L332.9 349.6 L332.9 349.6 L332.9 349.6 L332.9 349.6 L333 349.6 L333.1 349.6 L333.1 349.6 L333.1 349.6 L333.2 349.6 L333.4 349.7 L333.3 350 L332.8 350.3 L332.9 350.6 L332.7 350.7 L332.3 351.8 L331.7 351.8 L331.3 351.5 L331.1 352.3 L331.1 352.7 L330.9 352.9 L331.1 353.6 L330.9 353.9 L331.8 354 L331.9 354.5 L332 354.7 L332.2 355.2 L331.9 355.4 L332.2 355.6 L332.1 355.9 L332.3 356.3 L332.2 356.9 L332 357.1 L332.1 357.5 L332.5 357 L333 357.1 L333.1 357.3 L333.6 357.2 L334.2 357.4 L334.3 357.7 L334.7 357.8 L334.9 357.6 L335.5 357.9 L335.4 358.1 L335.1 358.4 L335.1 358.8 L335.8 358.9 L336.3 359.3 L336.7 359.5 L336.7 359.7 L337.1 359.8 L337.4 359.6 L337.8 359.6 L338.2 360.2 L338.3 360.8 L338.5 360.8 L338.9 360.4 L339.3 360.2 L339.5 360.7 L339.4 360.8 L340 360.9 L340.3 360.7 L340.5 360.8 L341.5 360.6 L342.4 360.3 L342.6 360.4 L342.9 360.3 L343.1 360.6 L343.2 360.8 L343.5 360.9 L343.7 361.4 L344.4 361.3 L345.1 361.6 L345.9 361.5 L345.6 361.2 L346 360.8 L346.4 360.8 L346.4 361.1 L346.1 361.7 L346.3 361.8 L347.2 361.3 L347.8 361.4 L348.7 361.2 L349.6 360.1 L349.9 360.1 L350.2 360.4 L350.4 360.2 L350.9 360.5 L350.9 360.5 L351 360.8 L351.5 360.5 L351.8 360.7 L352.3 360.5 L352.8 360.9 L354.2 361 L354.3 361.1 L354.4 361.1 L354.6 361.1 L354.7 361.6 L354 361.8 L353.7 362.1 L353.8 362.4 L354.2 362.5 L354.6 362.7 L355.1 362.7 L355.6 362.4 L357.2 362.3 L357.8 362.1 L358.3 362 L358.7 361.8 L358.7 361.3 L359 361.2 L359.4 361.8 L359.8 362.1 L360.6 362.1 L360.9 362.2 L361.6 362.2 L361.7 362.4 L361.4 362.9 L360.5 363 L360.3 363.1 L360.4 364.2 L359.6 365.1 L359.6 365.7 L359.4 367 L359.5 367.6 L359.9 368.4 L360.1 368.9 L360.2 369.8 L360.7 369.9 L360.9 370.2 L360.8 370.5 L361.1 371 L361.5 371.2 L361.6 371.6 L361.3 371.8 L361.3 372.1 L361.8 372.6 L361.7 373.4 L361.9 373.6 L362.5 373.2 L363.3 373.2 L363.7 373.5 L364.1 373.5 L364.6 373.2 L365.3 373.2 L365.8 373.2 L366.1 372.8 L366.5 372.9 L366.7 372.7 L367.1 372.1 L367.6 371.7 L367.6 371.2 L367.2 370.3 L367.1 369.6 L366.9 369.3 L366.4 369.4 L366.2 369.2 L366.3 368.8 L366.2 368 L365.8 367.8 L365.6 367.7 L365.1 367.8 L364.5 367.6 L364.3 367.3 L364.2 366.5 L364.5 366.3 L364.5 365.9 L364.8 366.2 L364.9 365.9 L365.3 365.5 L366.2 365.2 L366.5 364.6 L366.7 364.6 L367.2 364.3 L367.5 364.4 L368.3 364.3 L368.7 364.1 L369.1 363.4 L369.7 363 L369.9 362.9 L370.8 362.9 L371.1 362.9 L372.1 362.3 L372.8 362.1 L373.4 362.1 L374.4 361.8 L374.3 362.2 L374.1 362.2 L374.2 362.5 L374.4 362.5 L375.1 362 L375.3 361.8 L375.9 361.6 L376.4 361.7 L376.6 361.6 L377 361.7 L377.4 361.4 L377.8 361.6 L378 361.4 L378.2 360.9 L378.6 360.7 L379.1 360.7 L379.5 361 L379.3 361.2 L380 361 L380.5 360.7 L380.8 360.8 L381.3 360.5 L381 360.3 L380.6 360.2 L380.6 359.8 L381.4 359.3 L382.3 359 L382.8 359 L382.8 359.5 L383.2 359.6 L383.2 359.8 L384.3 359.8 L384.8 359.5 L385 359 L385.1 358.9 L385.6 359.1 L386 359.4 L387 359.3 L387.3 358.8 L388.3 357.8 L388.8 357.8 L389.3 358.5 L389.6 358.6 L390.1 358.3 L390.7 357.5 L390.7 357 L390.5 356.7 L390.7 356.3 L391 355.9 L391.1 356.5 L391.6 357 L391.6 357.3 L392.4 358.1 L392.7 358.3 L393.2 357.9 L393.3 357.5 L394.3 357 L394.5 356.7 L395.1 356.4 L395.5 356.4 L395.4 356.1 L395.4 355.8 L395.2 355.5 L395.2 355.2 L395.4 355.1 L395.7 355 L395.7 354.3 L395.9 354.2 L395.8 354 L396 353.9 L396.4 353.3 L396.4 353.1 L396 353 L395.9 353.3 L395.5 353.3 L396.1 352.7 L396.4 352.7 L396.6 352.4 L397.1 352.2 L396.9 351.1 L396.5 350.4 L397 350.3 L397.2 350.8 L397.3 351 L397.6 351.6 L398.1 352.1 L398.3 352.9 L398.5 353 L399 352.6 L399 352.6 L399.2 352.4 L399.8 352.5 L400.2 352.4 L400.3 352.2 L400.9 352.1 L401 351.9 L401.5 352 L401.6 352.1 L402.2 351.9 L402.4 351.7 L403 351.6 L403.4 351.7 L403.8 352.3 L403.9 352.9 L404.1 353.1 L404.5 352.8 L405.1 352.7 L405.3 352.4 L405.1 352.1 L404.7 351.9 L404.6 351.7 L405 351.2 L404.8 351 L404.2 351.1 L404.7 350.8 L404.9 350.7 L405 350.4 L405.8 350 L406 349.8 L406.4 350.1 L406.2 350.4 L406.2 351.1 L406.3 351.3 L406.3 351.7 L407.4 351.6 L407.6 352.1 L408 352 L408 351.4 L408.2 351.1 L409 350.5 L408.9 350.4 L409.2 350.2 L409.4 349.8 L410.1 349.7 L410.4 350 L410.4 349.6 L410.9 349.5 L410.8 349.9 L411.6 349.9 L411.8 349.9 L411.9 350.5 L412.2 350.8 L412.7 350.8 L413 350.7 L414 351.1 L413.9 350.8 L414.3 350.2 L413.7 350.1 L413.9 349.8 L414.1 349.5 L414.7 349.1 L415.1 349.3 L415.7 349.4 L416 349.6 L416 350.3 L416.3 350.3 L416.8 349.9 L417.3 349.7 L417.6 349.7 L417.9 349.5 L418.4 349.3 L418.9 349.6 L419.2 349.4 L420.1 348.6 L420.3 348.5 L420.7 348.3 L421.4 348.6 L422.1 348.5 L422.6 348.5 L422.9 347.9 L423.2 347.7 L423 347.4 L423.1 347.1 L423 346.9 L423.1 346.6 L424 346.4 L424.4 346.1 L424.8 345.9 L425.3 346 L425.5 345.7 L425.3 345.6 L425.1 345 L425.9 344 L425.9 344 L426 343.8 L426 343.7 L426.2 343.5 L426.1 343.3 L426.5 343 L426.8 343.2 L427.2 343.2 L427.5 342.9 L427.9 342.9 L428.9 342.7 L429.8 342.6 L429.9 342.8 L430.7 342.8 L431.4 342.5 L431.3 342.1 L431.7 342 L431.7 341.4 L432.1 341.3 L432.7 341.4 L433.2 340.6 L433.1 340.4 L433.3 339.8 L433.5 339.7 L434.2 339.7 L434.4 339.5 L434.6 339.1 L435.1 338.6 L435.5 338.5 L435.7 338.3 L435.8 337.7 L436.4 337.3 L436.5 336.8 L437 336.6 L437.4 336.5 L437.8 336.2 L437.4 335.4 L437.1 335.4 L437.2 334.9 L436.8 334.8 L437.1 333.8 L437.5 333.4 L437.7 333.3 L437.9 333.5 L438.6 333.9 L439.8 333.7 L439.7 333.4 L440.4 333 L441.1 333 L441.5 333.4 L441.5 333.9 L442 333.8 L442.6 333.3 L442.7 332.8 L442.4 332.9 L442.4 332.6 L442.5 332.4 L442.8 332.5 L443.5 331.8 L443.6 331.5 L442.3 331.2 L442.3 330.9 L442.8 330.7 L442.8 330.8 L443.3 330.9 L443.8 330.6 L444 330.8 L444.3 330.5 L445 330.6 L445.5 330.6 L445.4 330.4 L444.9 330.3 L444.8 330.1 L445.1 329.9 L445.7 330 L445.9 329.8 L445.9 329.8 L445.6 329.8 L445.6 329.7 L445.5 329.7 L445.8 329 L445.7 328.9 L445.3 329.2 L445.1 329.2 L444.6 328.6 L445.3 328.4 L445.1 328 L445.4 327.9 L445.4 327.6 L445 327.5 L445 327.4 L445 327.4 L444.7 327.2 L444.6 327.2 L444.8 327.1 L444.8 327.1 L444.8 327.1 L445.2 326.9 L445.5 327 L445.3 327.2 L445.5 327.6 L446.1 327.4 L446.3 327.5 L446.1 327.9 L445.9 327.8 L445.8 328.1 L446.2 328.5 L446.3 328.5 L446.8 328.5 L446.6 328.7 L446.7 329.3 L446.9 328.9 L447.1 328.1 L446.8 328 L446.6 327.6 L446.8 327.4 L447.3 327.8 L447.7 327.7 L448.1 328 L448.5 327.7 L448.3 327.2 L448.6 327.3 L449.1 327.1 L448.6 326.8 L448.3 326.4 L447.9 326.4 L447.8 326.5 L447.6 326 L446.9 325.9 L447 325.5 L447.3 325.5 L447.6 325.1 L447.9 324.9 L448.1 325 L448 325.5 L448.2 325.6 L448.8 325.6 L448.7 325.1 L448.9 324.6 L449.3 324.9 L449.7 324.9 L449.6 325.6 L449.8 325.3 L450.1 325.3 L450.1 325.6 L450.2 325.8 L450.1 326 L450.6 326.1 L450.9 325.7 L450.7 325.5 L450.9 325.3 L451 325.8 L450.9 326 L451.1 326.3 L451.6 326.3 L451.7 326 L451.6 325.8 L451.7 325.4 L451.3 325.4 L451.8 325.1 L451.9 325.3 L451.9 325.4 L452.7 325.8 L452.6 325.4 L453 325.2 L453.6 325.2 L453.5 325.1 L453.5 325.1 L453 324.8 L453.1 324.5 L453.5 324.5 L453.7 324.4 L453.2 324.1 L453.3 323.9 L452.9 323.8 L452.8 323.3 L452 323.7 L451.9 324 L452.2 324.4 L452.2 324.7 L451.8 324.8 L451.8 325.1 L451.4 325.1 L451.2 324.6 L451.3 324.3 L451 324 L450.5 324 L450.6 323.7 L450 323.6 L449.9 323.3 L450.6 323.1 L451.1 323.1 L451.1 322.8 L451.3 322.8 L451.4 321.4 L451.5 321.2 L452 321.1 L452.2 320.1 L452 319.9 L451.7 320 L451.6 319.4 L451.3 319.1 L451.1 318.7 L451.7 318.3 L451.8 317.8 L452.7 317.6 L453 317.7 L453 317.4 L453.4 317.2 L453.5 317.4 L453.9 317.4 L454.4 317 L454.3 316.8 L453.8 316.9 L453.3 316.2 L453.3 316 L452.8 314.8 L452.4 314.6 L451.7 314.5 L451.2 314.7 L450.9 314.5 L451.3 314.2 L451.4 313.7 L451.7 313.5 L452.1 313.9 L453.3 313.8 L453.5 314 L453.6 314.3 L453.9 314.1 L453.9 313.8 L454.2 313.3 L454.3 313 L455.3 313 L455.4 313.1 L454.7 313.6 L454.5 313.9 L454.5 314.2 L454.3 314.5 L453.9 314.5 L453.4 314.7 L453.2 315.4 L453.6 315.5 L454.3 315 L454.2 314.9 L454.5 314.7 L454.9 314.7 L455.4 314.4 L455.7 314.6 L456.1 314.3 L455.8 313.8 L456.3 313.6 L456.2 313.3 L455.8 313.3 L456 312.9 L455.7 312.9 L455.7 312.6 L455.5 312.6 L455.2 312.6 L455.3 312.2 L455.9 312.1 L456 311.7 L456 311.7 L456.5 311.7 L456.9 311.8 L457.2 311.2 L457.4 311.1 L457.3 310.7 L457.5 310.7 L457.4 310.2 L458.4 310.2 L458.5 310.1 L459 309.7 L459.3 309.7 L459.8 309.5 L460.1 308.8 L459.9 308.7 L460.1 308 L460.9 307.7 L461 307.1 L461.3 306.6 L460.7 305.8 L460.6 305.7 L461.1 305.2 L461.3 304.7 L461.9 304.2 L462.1 303.8 L462.3 303.8 L462.5 304 L463.2 303 L463.5 302.7 L463.8 302.8 L464.3 303.3 L464.7 303.3 L465 303.5 L465.4 303.5 L465.3 303.7 L465.3 303.7 L465.4 303.6 L465.4 303.6 L465.4 303.5 L465.4 303.5 L465.8 303.4 L465.8 302.9 L465.5 302.9 L465.5 302.6 L464.9 302.7 L464.5 302.7 L463.9 302.2 L464.2 301.9 L464.6 300.9 L465 300.5 L465.1 300.6 L465.3 301.5 L465.6 301.6 L466.4 301.5 L466.8 301.1 L467 300.5 L467.5 300.5 L467.7 300 L468.2 299.5 L468.5 299 L469 299 L469.3 299.2 L469.4 299.6 L469.8 299.4 L470.2 298.7 L470.1 298.5 L469.9 298.6 L470.1 298.1 L470.4 298 L470.2 297.4 L470 297.1 L469.9 296.6 L469.5 296.5 L469.2 295.8 L469 295.7 L470 295.5 L470.4 295.1 L470.5 294.3 L470.4 293.8 L471.2 293.8 L471.1 293.5 L470.9 293 L470.6 292.7 L470.6 292.3 L470.1 292 L470.1 291.5 L469.7 291.2 L469.6 291 L470.6 291.4 L470.9 291.3 L471.1 291 L471.2 291.5 L471.5 291.5 L471.9 291.8 L472.2 291.6 L472.9 292.1 L473 291.7 L473.1 291.5 L473.1 291.1 L472.8 290.8 L473 290.8 L472.9 290.2 L473.3 290.1 L473.2 290 L472.7 289.9 L472.9 289.5 L472.6 289.3 L472.7 289 L473 288.8 L473.2 288.4 L473 288.1 L472.9 287.8 L473.2 287.5 L473.2 287.2 L472.9 286.7 L472.4 286.6 L472.1 286.7 L471.7 286.5 L472.7 285.6 L473.3 285.5 L473.6 285 L474.2 284.6 L474.6 284.5 L474.5 284.2 L473.3 284.3 L473.3 284.1 L473 283.7 L472.5 284.1 L471.7 283.7 L471.2 283.4 L470.7 283.4 L470.5 283.3 L470 282.7 L469.9 282.7 L469.2 281.6 L468.6 280.9 L467.7 280.2 L467.4 279.9 L467 279.7 L466.1 279.6 L465.7 279.3 L464.9 278.6 L464.6 278.1 L465.4 277.8 L465.8 277.5 L466.2 277.3 L466.5 277.1 L467.4 277.1 L467.9 276.6 L468.8 276.2 L469.6 275.9 L470.3 275.8 L472.4 275.8 L472.7 276.2 L472.9 277 L473.2 277.3 L474 277.8 L474.5 277.8 L473.9 277.4 L473.3 277.2 L473.2 276.9 L473.1 276.4 L473 276 L472.8 275.7 L473.2 275.4 L473.2 274.4 L473 274 L472.7 273.5 L471.5 272.3 L470.7 271.3 L469.5 270.6 L468.8 270.5 L467.7 269.7 L467.2 269.4 L467.4 269 L467.7 268.7 L468 268.7 L469.1 269.2 L469.8 269.5 L470.3 269.6 L471.6 270.1 L472.2 270.1 L473.1 269.8 L473.2 269.6 L473 268.4 L473 267.5 L472.2 266.1 L471.9 265.3 L471.1 264.6 L471 264.3 L468.9 263.6 L469 263.5 L468.2 263.2 L468.6 262.9 L468.6 262.5 L468.2 262.3 L467.9 260.9 L467.6 260.6 L467.3 260.5 L466.5 260.4 L465.4 260 L464.7 259.6 L464.2 259.3 L463.7 259.2 L463.8 259 L463.7 258.6 L463.2 258.4 L463.6 258.3 L463.8 257.9 L463.8 257 L463.6 256.6 L463.4 255.6 L463.3 255.4 L462.8 255.2 L462.9 254.8 L462.6 253.7 L462.3 253.5 L462.5 253.1 L462.3 252.9 L461.9 252.8 L461.6 252.5 L461.4 251.6 L461.1 250.9 L460.5 250 L460.4 249.9 L460.2 249.5 L459.7 248.4 L459.4 248.1 L459.3 247.7 L458.2 245.6 L458 244.8 L457.7 244.1 L457.7 243.6 L455.7 242.8 L454.4 242.2 L453.1 242 L452.8 241.7 L451.5 241.2 L451.2 241 L450.8 240.8 L449.9 240.2 L450.4 239.7 L449.8 239.5 L449.1 239.5 L450.1 239.5 L450.2 239.5 L449.6 239.2 L449.6 239.3 L449.1 239.4 L448.5 239.3 L448.1 239.1 L447.8 239.1 L447.6 238.8 L447.4 238.2 L447.6 237.9 L447.5 237.4 L447.8 236.8 L448.2 236.6 L448.3 237 L448.4 236.9 L448.3 236.6 L448.4 236.5 L448.8 236.5 L449 236.5 L449.5 236.1 L449.2 235.9 L449.4 235.1 L449.7 234.6 L450.1 234.3 L450.5 234.5 L450.6 234 L451 233.8 L450.9 233.5 L451.3 233 L451.7 232 L451.7 231.8 L452.2 231.5 L452.5 231.5 L452.7 231.9 L452.8 231.8 L452.9 231.5 L453.2 231.3 L453.2 231.5 L453.6 231.6 L454.1 231.3 L454 231.1 L454.3 230.5 L454.1 230.4 L454.1 230.2 L454.4 230.2 L454.9 230.6 L455.2 230 L455.1 229.7 L455.4 229.2 L455.8 229.1 L455.9 228.9 L456.2 228.8 L456.7 228.5 L456.4 229 L456.7 229 L456.7 228.8 L457.2 228.3 L457.6 228.3 L457.7 228 L457.5 227.8 L457.4 227.9 L457.1 228.1 L457.2 227.8 L456.6 228 L457 227.7 L457 227.4 L456.5 227.4 L456.2 227.1 L455.9 227 L455.8 226.8 L456.1 226.7 L456.1 226.4 L456.5 226.1 L456.8 226.1 L456.9 226.2 L457.2 226.2 L457.2 226.3 L457.7 226.3 L457.5 225.9 L457.7 225.9 L458.1 226.2 L458.1 226.4 L457.4 227.6 L457.9 227.5 L458.8 227.5 L459.1 227.2 L459.8 227.1 L459.8 227 L460.3 227.1 L460.5 226.9 L460.7 226.9 L461 226.8 L461.4 226.8 L461.2 226.6 L461.2 226.1 L461.1 225.8 L461.1 225.4 L460.9 225.4 L460.9 224.9 L461.7 225 L461.2 224.4 L461.8 223.7 L462.4 223.7 L462.5 223.8 L462.7 224.1 L462.6 224.3 L462.8 224.6 L463.2 224.2 L463.3 224.1 L463.2 223.8 L463.4 223.9 L463.7 223.7 L463.6 223.3 L463.9 223 L463.7 222.8 L463.2 222.8 L462.9 222.4 L462.6 222.3 L462.9 222.2 L463.3 222.4 L463.6 222.7 L464.3 222.7 L464.7 222.4 L465.5 222 L466.3 221.8 L466.8 221.5 L466.9 221.5 L467.3 221.4 L467.7 221.5 L467.6 221.2 L468.2 221.1 L468.6 220.7 L468.7 220.6 L469.2 220.3 L469.1 220.5 L468.5 220.7 L468.9 221.2 L469.3 221.2 L469.1 220.9 L470 221.3 L469.8 220.6 L470.2 220.4 L470.7 220.4 L471 220.2 L471.1 219.9 L472.6 219.4 L472.9 219.3 L473.3 219.1 L473.6 220 L473.7 219.7 L474.1 219.6 L474.3 219.3 L474.4 219.3 L474.5 219.3 L474.3 219.8 L474.9 219.7 L475 220 L474.8 220.2 L475.3 220.2 L475.8 220.3 L475.8 220.3 L476.4 220.4 L476.7 220.2 L476.8 220 L477.1 220.1 L477.4 219.9 L477.4 219.8 L477.2 219.6 L477.7 219.6 L477.7 219.8 L478.1 219.7 L478.4 219.1 L478.3 218.7 L478.6 218.4 L478.5 218.3 L477.8 218.5 L477.5 218.4 L477.6 218.2 L477.7 217.6 L478.2 217.4 L478.6 217.4 L478.5 217.1 L479 217 L478.7 216.4 L478.5 216.4 L478.5 216 L478.9 215.6 L478.8 215.4 L479.2 215.2 L479.6 215.3 L479.8 215.2 L479.7 214.9 L479.5 215 L479.1 214.8 L478.3 215 L477.8 215 L477.7 214.8 L477.1 214.9 L476.3 215 L475.8 214.8 L475.9 214.7 L475.6 214.5 L475 214.6 L474.8 214.7 L474.5 214.2 L474.7 214 L474.6 213.6 L474.1 213.7 L473.9 213.8 L473.4 213.9 L473.2 214.2 L472.5 214.4 L471.1 214.5 L470.2 214.4 L469.9 214.2 L469.3 214.5 L469.3 214.7 L468.4 214.4 L468.3 214 L467.7 213.6 L467.7 213.3 L468 213.3 L467.6 213 L467.2 212.9 L467.3 213.3 L466.8 213.4 L466 213.4 L465.6 213.3 L465.4 213 L465.5 212.8 L465.3 212.7 L465.5 212.3 L465.3 212.1 L464.4 212.1 L464 211.8 L463.5 211.5 L463.5 211.2 L462.9 211.1 L462.6 211.2 L462.5 211.2 L461.6 211.1 L460.8 211.5 L460.6 211.4 L460.2 211.7 L459.6 211.9 L459 211.8 L458.2 212.3 L456.9 212.4 L456.8 212.6 L457.3 212.7 L457.3 212.9 L456.8 213 L456.7 213.3 L457.1 213.6 L456.8 213.9 L456.1 214.3 L455.6 214.5 L455.4 214.6 L454.9 214.7 L454.3 214.9 L454.1 215.2 L453.4 215.3 L453.3 215.6 L453.7 215.9 L453.8 216.3 L453.5 216.6 L453.2 216.7 L453 217 L452.4 217.5 L452 217.6 L451.9 217.4 L451.8 217.3 L450.9 217.6 L450.1 217.5 L449.5 217.6 L448.9 217.6 L448.6 217.7 L448.3 217.5 L448.3 217 L447.5 216.7 L447.3 216.4 L447.5 216.2 L446.8 216.6 L446.8 216.4 L446.4 216.4 L446.3 216.6 L446.1 216.4 L445.9 216 L445.6 215.8 L445 214.2 L445 213.9 L445.5 213 L445.8 212.7 L446.3 212.4 L446.8 212.3 L447.8 212.3 L448.1 212.2 L448.1 212 L447.6 211.8 L447.6 211.3 L447 211.3 L446.8 211.3 L446.8 211 L446.6 210.3 L445.6 209.6 L445.3 208.7 L444.7 208.3 L443.8 208.1 L442.8 208.2 L442.1 208.3 L442 208.4 L441.9 208.8 L441.4 209 L441.3 209 L441.1 208.7 L441 208.5 L440.5 208.4 L440.3 208.6 L440.1 208.4 L439.4 208.4 L438.3 208.2 L438 207.8 L437.4 207.6 L436.8 207.6 L436.5 207.7 L435.4 207 L435.4 206.8 L435.9 206.4 L436 206.1 L435.8 206 L434.9 206.2 L434.3 206.1 L433.9 205.6 L433.8 205.3 L433.4 205.2 L433.1 204.7 L433.4 204.6 L433 204.5 L433 203.8 L433.2 203.5 L433.9 203.3 L434 203.1 L434 202.6 L433.3 202.4 L433.1 202.3 L433.1 201.9 L434.1 201.7 L434.3 201.5 L434.9 201.7 L435.2 201.1 L435.4 200.8 L435 200.7 L434.9 199.8 L435.2 199.2 L436 198.7 L436.1 198.4 L436.7 198.3 L437 198.4 L437.1 198.5 L437.5 198.6 L437.8 199.1 L438.1 199.6 L438.4 200 L439.3 200.2 L439.7 200.2 L439.8 200.6 L440.9 201.2 L441.3 201.2 L441.9 200.6 L441.6 200.3 L441.3 199.5 L441.8 199.3 L441.7 199.1 L442.2 198.9 L443.4 199.1 L443.9 199.1 L444.3 198.8 L444.6 198.9 L444.8 198.7 L445.1 198.7 L444.6 199 L444.6 199.2 L444.9 199.2 L445.4 198.8 L445.8 198.6 L445.9 198.4 L446.5 198.1 L446.7 197.7 L447.3 197.2 L448.1 197 L448.5 196.5 L448.5 196.3 L448.1 195.7 L448.9 193.6 L449.9 192.8 L450.5 192.9 L450.4 192.6 L450.6 192.1 L451 191.9 L451.3 192 L451.5 191.8 L451.9 191.8 L452.3 191.7 L452.8 191.6 L453.1 191.3 L453.3 191.5 L453.6 191.5 L453.4 191.2 L454 191.2 L454.3 191 L454.3 190.7 L455.6 190.4 L456 190.4 L456.3 190.2 L457.3 189.9 L458.2 189.5 L459 189.5 L459.3 189.3 L459.6 188.7 L459.6 188.3 L459.7 188.1 L460.3 187.8 L460.3 187.4 L460.5 187.2 L460.5 187 L460.5 186.9 L460.9 186.8 L461.2 186.4 L461.5 186.4 L461.5 186.1 L462.4 185.6 L462.5 185.2 L462.4 184.9 L462.7 184.8 L463.5 184.8 L463.9 184.5 L464.3 184.6 L464.3 184.2 L463.9 184.2 L463.8 184 L464 183.8 L463.8 183.7 L464.1 183.7 L464.1 183.9 L464.8 183.7 L464.7 183.6 L464.9 183.4 L465.2 183.1 L465.7 183.1 L466.2 183.3 L466.3 183 L467.3 182.9 L468.1 183 L468.6 183 L468.9 183.3 L469.1 183.3 L469.1 183.6 L469.3 183.4 L469.8 183.3 L470.3 183.5 L470.8 183.3 L470.8 183.2 L471.2 182.9 L471.5 182.9 L471.8 183.4 L472.2 183.7 L472.6 183.7 L472.6 184.5 L472.8 184.8 L473.5 184.9 L473.8 185.1 L474.4 185 L474.6 184.9 L474.5 185.4 L474.6 185.7 L475.5 186.3 L475.4 186.4 L475.7 186.7 L475.5 186.9 L475.5 187 L475.3 187.2 L475 187.2 L475.1 187.6 L474.6 187.8 L474.5 187.7 L474.3 187.9 L474.5 188 L474.3 188.2 L474 188 L473.6 188.1 L473.6 188.7 L473.5 188.8 L472.7 188.9 L472.8 189.2 L473.1 189.5 L473.3 189.5 L473.2 189.9 L472.8 189.9 L472.4 190.4 L471.6 190.9 L471.4 191.1 L471.2 191.6 L471.1 191.7 L470.5 191.7 L469.8 192.2 L469.3 192.4 L469 192.3 L468.9 192.5 L468.4 192.9 L468.5 193.3 L468.2 193.4 L468.6 193.8 L468.5 194.2 L468.2 194.3 L468.2 194.6 L467 194.8 L466.8 194.7 L466.4 194.9 L466.1 195.2 L466.1 195.5 L466.5 195.9 L466.7 195.7 L466.8 195.9 L466.5 196.3 L466.3 196.4 L466.3 196.7 L466.5 196.9 L466.9 196.7 L467 196.9 L467.3 196.8 L468 197 L468 197.3 L468.3 197.4 L468.4 197.6 L468.7 197.6 L468.8 197.7 L469.2 197.4 L469.7 197.3 L470.7 197 L470.6 197.2 L470.6 197.4 L470.2 197.5 L470.2 197.8 L469.8 197.7 L469.4 197.9 L469.8 198.2 L469.5 198.2 L469.4 198.5 L469.6 198.8 L469.9 198.8 L470.3 199.2 L469.8 199.6 L469.6 199.6 L469.9 199.2 L469.5 198.9 L469.2 199.2 L469.5 199.4 L469.4 199.6 L468.7 200 L468 200.1 L467.4 199.8 L466.9 200.2 L467.2 200.5 L466.6 200.6 L465.9 200.9 L465.7 200.7 L465.2 200.7 L464.8 201 L464.9 201.3 L465.2 201.4 L465 201.6 L465.2 202.2 L465 202.4 L465.3 202.9 L465.8 202.9 L466.4 202.3 L466.6 202.3 L466.7 202.3 L466.9 202.2 L467.3 202 L467.7 202.1 L468.7 202 L469.2 201.5 L469.7 201.6 L470.2 201.6 L470.5 201.5 L470.6 201.1 L470.1 200.8 L469.7 200.8 L470.1 200.6 L470.2 200.2 L470.8 200.3 L471 200.1 L471.3 200.1 L471.4 200.6 L472 200.9 L472.5 200.6 L472.4 200.4 L471.9 200 L472.2 200.1 L472.6 200.1 L472.4 199.8 L472.5 199.8 L472.9 200.1 L473.4 199.7 L473.8 199.8 L473.9 199.6 L473.7 199.4 L474 199.3 L474.4 199 L474.8 198.9 L474.4 198.7 L474.3 198.4 L474.7 198.1 L475.5 197.9 L475.8 197.4 L476.1 197.1 L476.6 196.9 L476.6 196.7 L477 196.5 L477.4 196.6 L477.5 196.6 L478 196.5 L478.1 196.5 L478.6 196 L479.1 195.8 L479.2 195.6 L479.5 195.6 L480.7 195.2 L481 195 L481.2 194.8 L481.9 194.8 L482.2 194.8 L482.3 194.6 L482.7 194.4 L482.6 194.3 L483.4 194.1 L483.8 194.4 L484 194.1 L484.4 194.2 L484.4 193.9 L484.8 194 L485.1 193.8 L484.9 193.7 L485 193.4 L485.7 193.4 L486.1 193.3 L486 193.4 L486.1 193.7 L486.9 193.4 L487.3 193.2 L487.4 193.1 L487.5 193.4 L487.8 193.1 L488.1 193.2 L488.4 193 L488.4 192.7 L488.7 192.7 L488.8 192.9 L489.8 192.7 L489.9 192.7 L491.2 192.8 L491.7 192.9 L492.6 192.7 L492.6 193.2 L493.1 193.5 L493.3 192.6 L493.7 192.4 L493.7 192.2 L493.7 192.1 L493.7 192.1 L493.7 192 L493.9 191.8 L494.3 191.7 L494.3 191.5 L494.9 191.2 L495.1 190.9 L494.8 190.6 L494.9 190.4 L495.6 189.8 L495.9 189.5 L496.2 189.4 L496.4 189.1 L496.4 189.1 Z M399.8 352.5 L399.5 352.6 L399.3 352.9 L398.7 353.2 L398.7 353.7 L399 353.8 L399.1 353.8 L399.3 353.7 L399.7 353.9 L399 354.3 L399.2 354.1 L398.5 354.3 L398.4 354.6 L398 355 L398.1 355.3 L398.5 355.1 L398.9 355.2 L399.3 355 L399.4 355.2 L399.7 355 L399.5 354.9 L399.7 354.7 L399.8 354.3 L400.1 354.1 L400.6 354.1 L400.8 354.3 L400.6 354.6 L401 355 L401.3 355 L401.3 355.2 L401.9 355.3 L401.8 354.6 L401.9 354.4 L402.1 354.7 L402.3 354.7 L402.4 354.3 L402.4 354.3 L402 354.1 L402.1 353.5 L402.4 353.5 L402.4 353.5 L402.4 353.5 L402.4 353.6 L402.8 354 L403.1 353.8 L403 353.3 L403.2 353.1 L403.2 353.1 L402.9 353.1 L402.5 352.7 L402 353.1 L401.5 353.2 L401.4 353 L401.6 352.8 L401.8 353 L402.6 352.5 L402.3 352.5 L402.1 352.3 L401.9 352.1 L401.9 352.1 L401.9 352.1 L401.6 352.2 L401.6 352.1 L401.5 352 L401 351.9 L400.9 352.1 L400.3 352.2 L400.2 352.4 L399.8 352.5 Z M479.1 197.7 L478.7 197.8 L478.2 197.5 L477.9 197.7 L478.6 197.8 L479.5 197.9 L479.4 197.8 L479.3 197.8 L479.3 197.8 L479.1 197.7 L479.1 197.7 Z M476.2 198.8 L476.4 199 L476.6 198.7 L476.9 198.8 L476.8 198.6 L476.9 198.4 L476.4 198.5 L476.2 198.7 L476.2 198.7 L476.2 198.7 L476.2 198.8 Z M479.6 198.2 L479.7 198.4 L480.2 198.2 L480.1 198 L479.1 198.1 L479 198.2 L479.6 198.2 L479.6 198.2 L479.6 198.2 Z M480 200 L479.7 199.9 L480 200.2 L480.2 200.2 L480.1 200 L480 200 Z M363.6 375.3 L363 375.6 L362.5 375.7 L362.3 375.6 L361.6 375.6 L361.2 375.7 L360.9 375.6 L360.4 375.7 L359.9 375.4 L359.4 375.4 L358.7 375.7 L358.2 376.1 L357.9 376.7 L357.1 376.5 L356.6 376.5 L356.1 376.3 L355.7 376.5 L355.7 376.8 L355.5 376.8 L354.8 377.5 L354.9 378 L354.7 378.3 L354.2 378.4 L353.8 379.1 L353.3 379.4 L352.7 379.9 L352 380.4 L351.6 380.6 L351.2 381.1 L350.5 381.2 L350.1 381.5 L349.7 382.2 L349.6 383.5 L349.6 384.3 L349.9 384.7 L350 385.5 L349.6 385.9 L349.6 386.5 L350.1 387.2 L350.3 387.8 L350 388.8 L350.1 389.5 L350.5 389.9 L351.3 389.9 L352.3 390.1 L352.5 390.4 L352.8 391.1 L353.4 391 L354.4 391 L354.6 391.5 L355 391.6 L356 391.5 L356.6 392 L357.4 392.1 L357.7 392.4 L358.2 392.4 L358.7 392.7 L359.5 392.4 L360 392.3 L360.3 392.2 L360.6 390.9 L361.8 390.5 L362.8 390.7 L363.2 390.5 L363.4 390.3 L363.7 389.3 L364.5 388.7 L364.8 388.4 L365.6 388.1 L366 388.2 L367.2 388 L367.2 387.1 L367.9 386.8 L368 386.3 L368 385.9 L368.3 383.4 L368.8 382.1 L369.1 381.8 L369.3 381.3 L369.8 381.1 L370.4 380.6 L370.8 380 L371.1 379.7 L371.9 379.2 L372.4 379.1 L372.5 379 L372.2 377.7 L371.9 376.9 L371.5 375.4 L371.3 375.3 L370.6 375.4 L370 375.2 L369.8 374.9 L369.4 374.9 L369.2 374.2 L368.9 374 L368.6 374.3 L367.8 374.5 L367.4 374.9 L367.1 374.8 L366.1 374.5 L365.5 374.5 L365.2 375 L364.8 374.8 L363.9 374.9 L363.6 375.3 Z M458.9 353 L459.6 353.3 L460 353.8 L460.7 354.9 L460.9 355.7 L460.9 356.5 L460.8 356.8 L461 357.3 L461.3 357.8 L461.6 357.9 L462 357.8 L462.7 358.2 L462.8 358 L462.8 357.2 L463.2 356.8 L463.2 356.3 L463.1 355.9 L463.2 354.3 L463.8 352.2 L464.1 351.7 L464.3 351.1 L464.7 350.9 L465.6 350.4 L466 350 L466.2 349.4 L466.6 349 L467 348.4 L467.3 347.8 L467.4 347.1 L467.8 346.9 L468 346.6 L467.8 346.1 L468.1 345.4 L468.4 344.9 L468.6 344 L468.8 343.4 L468.8 342.9 L469.4 340.9 L469.7 339.4 L470.1 338.6 L469.9 338.1 L469.9 337.8 L470.3 337.4 L470.4 337 L471.5 335.5 L471.6 334.8 L472 334.2 L472.2 333.8 L472.2 333 L472 332.5 L471.8 331.9 L471.8 330.9 L472.6 330 L473.3 329.4 L473.1 329.2 L472.7 329.1 L472.5 328.2 L471.8 328.2 L471.2 328 L470.9 327.9 L470.5 327.7 L470.5 327.3 L470.1 327.2 L469.8 326.7 L469.4 326.6 L468.9 326.6 L468.1 326.9 L467.8 327.2 L467.4 328 L467 328.1 L465.9 328.3 L465.2 328.7 L465 328.7 L464.2 329.1 L464.1 329.5 L463.7 330 L463.2 330.7 L463 331.6 L462.4 332.3 L461.8 332.6 L461.1 333.1 L460.7 334.1 L460.2 334.7 L459.8 335.2 L459.6 335.8 L459.1 336.4 L459 337 L458.4 337.6 L457.7 338.8 L457.4 339.3 L457.1 340.1 L456.4 340.4 L455.7 341.4 L455.7 342.5 L455.9 343.2 L455.8 344.7 L455.5 345.2 L455 347.2 L455.1 347.4 L456 347.9 L456.2 348.8 L456.6 350.5 L457.3 351.9 L457.5 352.2 L458.9 353 Z M427.4 343.8 L427 343.6 L426.6 343.8 L426.7 344 L427.4 344 L427.6 344.2 L427.9 344.1 L428.3 344.3 L428.4 344.2 L428.4 343.6 L428.3 343.4 L428 343.6 L427.7 343.5 L427.4 343.8 L427.4 343.8 Z M474.7 283.4 L475.4 283.7 L475.8 283.9 L476.2 283.9 L476.4 283.5 L476.4 283.1 L476.1 283 L475.9 282.6 L476 282.5 L475.9 282.4 L474.6 282.3 L474.1 281.9 L473.7 282 L472.8 281.6 L472.6 281.8 L473.1 282.4 L473.1 282.6 L473 282.8 L473.5 283.4 L474.2 283.3 L474.3 283.4 L474.7 283.4 Z M440.1 333.9 L439.8 334.4 L439.3 334.2 L439.1 334.3 L439.2 334.7 L439 334.8 L439.4 335.1 L439.6 334.8 L440.1 334.7 L440.6 334.9 L440.7 334.6 L440.5 334 L440.1 333.9 Z M475.2 281.6 L474.9 281.5 L474.6 281.6 L474.6 281.8 L474.8 282.1 L475.2 281.6 Z M475.3 286 L475.2 286.1 L475.7 286.2 L475.4 286 L475.3 286 Z M477.2 276.5 L477.2 276.9 L478.1 276.9 L478.1 276.6 L477.6 276.7 L477.3 276.5 L477.2 276.5 Z M496.7 321.1 L497.1 321.1 L496.9 320.8 L496.7 321.1 Z M474.7 280.3 L473.8 280.6 L474.7 281.1 L475.4 281.2 L475.5 280.5 L475.3 280.3 L475 280.3 L474.9 280.1 L474.7 280.3 Z M388.9 359.5 L389.1 359.2 L388.8 359.2 L388.2 359.5 L387.7 359.7 L387.5 360.1 L387.8 360.2 L388.2 360.1 L387.8 360.7 L388.2 361.1 L388.6 360.9 L388.4 360.7 L388.6 360.3 L388.4 360 L388.7 359.5 L388.9 359.5 Z M476.2 281 L475.8 281.1 L476.5 281.1 L476.6 281 L477.1 281.1 L477 280.8 L476.3 280.8 L476.2 281 Z M385.9 360.9 L386.2 360.9 L386.3 360.6 L386.7 360.7 L387.2 360.4 L386.9 360.1 L387.2 360 L387.1 359.7 L386.5 359.9 L386.2 360.2 L386.3 360.4 L386 360.5 L385.9 360.9 Z M473.5 290.9 L473.4 291.1 L473.8 291.1 L473.9 290.9 L473.6 290.6 L473.5 290.9 Z M486.6 322.7 L486.8 322.9 L487.1 322.8 L487.2 322.5 L486.9 322.3 L486.6 322.5 L486.6 322.7 Z M476.7 284.3 L476.8 284.9 L477.1 284.9 L476.9 284.5 L477.2 284.4 L477.2 284.1 L477 283.8 L476.9 283.9 L476.5 283.7 L476.3 283.9 L476.4 284.1 L476.5 284.3 L476.6 284.3 L476.7 284.3 Z M451.5 342.8 L451.9 342.8 L451.8 342.3 L451.2 342.3 L451.1 342.6 L450.8 342.5 L450.8 343 L450.9 343.2 L451.2 343.2 L451.5 342.8 Z M488.6 321 L489 321 L488.8 320.8 L488.6 321 Z M449.9 327.6 L450.2 327.7 L450.4 328 L450.6 327.9 L450.8 327.5 L450.6 327.6 L450.2 327.4 L449.9 327 L449.7 327.2 L449.7 327.6 L449.9 327.6 Z M477.2 279.6 L477.2 279.2 L476.7 279.1 L475.8 279 L475.8 279.5 L476.2 279.6 L476.5 279.4 L477.2 279.6 Z M400.8 355.1 L400.6 354.9 L400.6 355.5 L400.9 355.5 L401 355.2 L400.8 355.1 Z M482.7 195.3 L482.1 195.2 L481.9 195.5 L482.4 195.8 L482.8 195.4 L482.7 195.3 Z M471.7 294.7 L472 294.6 L472 294.3 L471.7 294.7 Z M402.3 353.7 L402.4 354 L402.5 353.8 L402.3 353.7 L402.3 353.7 Z M450.9 323.6 L451.2 323.3 L450.9 323.4 L450.9 323.6 Z M461.5 210 L461.4 210.3 L461.8 210.5 L461.8 210.3 L461.5 210 Z M475.7 284.8 L475.3 284.9 L475.5 285.1 L476.1 285.5 L476.2 285.3 L476 285 L476.2 284.9 L475.7 284.8 Z M450.2 342.1 L450.2 342.6 L449.9 342.7 L450.4 342.7 L450.4 342.1 L450.2 342.1 Z M454.6 318.5 L454.9 318.2 L454.8 318 L454.5 318.2 L454.6 318.5 Z M401.6 356.9 L402.3 356.7 L402.3 356.6 L401.7 356.8 L401.6 356.9 Z M465.9 305.2 L465.8 305.3 L465.8 305.3 L465.9 305.2 L465.9 305.2 Z M471.3 291.8 L471.7 292.1 L471.8 291.8 L471.6 291.6 L471.3 291.8 Z M366.6 364.7 L367.1 365 L367.3 365 L367.6 365.6 L367.9 365.4 L368.4 364.4 L368 364.5 L367.4 364.6 L367.2 364.4 L366.7 364.6 L366.6 364.7 L366.6 364.7 Z M385 360.2 L385.2 360.3 L385.2 360 L385 360.2 Z M461.2 209.7 L461.5 209.9 L461.5 209.7 L461.2 209.7 Z M367.3 365.6 L366.8 365.7 L366.2 365.4 L365.8 365.6 L365.4 365.5 L365.1 366 L364.5 366.4 L364.4 366.9 L365.4 366.7 L365.8 366.5 L366.3 366.4 L366.9 366.5 L367.3 367.1 L367.5 367 L367.5 366.4 L367.7 365.8 L367.3 365.6 Z M477.9 198.1 L477.9 198.3 L478.3 198.2 L477.9 198.1 Z M438.5 335 L438.9 334.6 L438.5 334.5 L438.5 335 Z M472.2 297.4 L472.5 297.2 L472.1 297.1 L472.2 297.4 Z M474.9 286.5 L475.2 286.2 L475.1 286 L474.6 285.6 L474.4 285.3 L474 285.3 L473.7 285.9 L473.9 286.1 L474.1 285.9 L474.5 286.4 L474.9 286.5 Z M395.4 356.1 L395.8 355.9 L395.6 355.3 L395.4 355.1 L395.2 355.2 L395.2 355.5 L395.4 355.8 L395.4 356.1 Z M453.9 313.9 L454.1 314.1 L454.3 313.8 L453.9 313.9 Z M471.4 271.1 L471.3 270.8 L470.9 270.3 L469.4 269.9 L469.2 269.6 L468.8 269.5 L468.7 269.7 L469.3 270.1 L470.7 270.8 L471.1 271.2 L471.3 271.2 L471.4 271.1 Z M477.5 283.8 L477.5 283.8 L477.5 283.8 L477.4 283.9 L477.4 283.9 L477.4 283.9 L477.4 283.9 L477.4 283.9 L477.4 283.9 L477.4 284 L477.5 284 L477.5 284 L477.5 284 L477.5 283.9 L477.5 283.8 Z M438.2 334 L438.1 333.7 L437.7 333.5 L437.2 333.7 L437 334.4 L437.1 334.6 L437.7 334.8 L438.1 334.4 L438.2 334 Z M478.5 277.4 L478.4 277.1 L478.3 277.3 L478.5 277.4 Z M462 186.7 L462.5 186.6 L462.4 186.3 L462.2 186.3 L461.9 186.7 L462 186.7 Z M451.5 319 L451.7 318.8 L451.4 318.6 L451.2 318.8 L451.5 319 Z M454.1 319 L454.4 318.9 L454 318.6 L454.1 319 Z M472 297.9 L472.4 297.7 L472.2 297.6 L472 297.9 Z M450.2 344.3 L450.1 344.7 L450.3 344.7 L450.2 344.3 Z M483.3 196.4 L483.3 196.2 L483 196.1 L483.3 196.4 Z M397.3 357.4 L397.4 357.1 L397.1 357.2 L397.3 357.4 Z M471.9 283.5 L472.1 283.7 L472.6 283.4 L472.5 282.8 L472.2 282.5 L471.8 282.4 L471.8 282.9 L471.8 283.5 L471.9 283.5 Z M473.8 281.7 L473.7 281.5 L473.4 281.6 L473.5 281.8 L473.8 281.7 Z M476.8 283.6 L477 283.1 L476.7 283.1 L476.6 283.5 L476.8 283.6 Z M450.7 341.7 L451.2 342.2 L451.2 341.8 L451 341.6 L450.7 341.7 Z M396.9 357.8 L397.1 357.6 L396.9 357.5 L396.9 357.8 Z M464.6 306.6 L464.6 306.7 L465 306.9 L464.6 306.6 L464.6 306.6 Z M472.8 290.8 L473 291.1 L473 290.8 L472.8 290.8 Z M391.6 358.7 L391.7 358.4 L392.1 358.4 L391.8 358.2 L391.5 358.3 L391.6 358.7 Z M455.1 315.7 L455.4 315.6 L455.5 315.4 L455.1 315.5 L455.1 315.7 Z M473.6 285.5 L473.3 285.7 L473.5 285.9 L473.6 285.5 Z M451.7 323.5 L451.8 323.6 L452.2 323.6 L452.2 323.3 L451.7 323.5 Z M472.8 280.7 L473.2 280.5 L473.1 280.2 L472.7 280.3 L472.5 280.5 L472.8 280.7 Z M472.7 282.3 L472.4 282.5 L472.7 282.7 L472.9 282.3 L472.7 282.3 Z M471.4 270.8 L471.4 271.1 L471.8 271.4 L472.6 271.5 L473.4 271.5 L474.1 271.7 L474.4 271.3 L474.3 271.1 L473.6 271.1 L472.8 271 L471.8 270.6 L471.3 270.6 L471.4 270.8 Z M397.8 353.4 L397.7 353.2 L397.5 353.3 L397.8 353.4 Z M475 283.6 L474.7 283.4 L474.6 283.6 L474.7 283.6 L474.7 283.6 L474.9 283.7 L475 283.6 Z M401.2 357.2 L401.6 357.1 L401.1 357 L401.2 357.2 Z M473.8 323.7 L474 323.8 L474.1 323.5 L473.8 323.7 Z M456.2 312.8 L456.1 312.9 L456.3 312.9 L456.3 312.8 L456.2 312.8 Z M463.9 224.2 L463.8 224 L463.6 224.2 L463.9 224.2 Z M400.9 357.3 L401 357.1 L400.6 357.2 L400.9 357.3 Z M452.6 314.6 L452.7 314.7 L453.1 314.5 L452.9 314.4 L452.6 314.6 Z M480.2 282 L480.5 282.1 L480.4 282.1 L480.4 282.1 L480.3 282 L480.3 282 L480.3 282 L480.2 282 Z M468.3 350.9 L468.4 351.2 L468.7 351.3 L468.8 350.9 L468.3 350.9 Z M475.9 285.9 L476 285.6 L475.6 285.6 L475.5 285.3 L475.2 285.4 L475.6 285.8 L475.9 285.9 Z M468.7 356.3 L468.7 356.7 L468.9 356.9 L469.5 357.1 L469.6 356.9 L469.3 356.8 L469.3 356.3 L468.7 356.3 Z M483.9 200.1 L484.4 199.8 L484.3 199.6 L483.8 199.5 L483.8 200 L483.9 200.1 Z M425 368.4 L424.9 368.6 L425.9 368.7 L426.1 369.2 L425.7 369.7 L424.8 370 L425.2 370.2 L425.9 370.1 L426.3 369.8 L426.5 369.3 L426.4 368.8 L426.1 368.4 L425.5 368.3 L425 368.4 Z M465.3 303.7 L465.3 303.7 L465.3 303.7 L465.3 303.7 Z M390.5 358.5 L390.7 358.2 L390.3 358.3 L390.5 358.5 Z M474.1 324.8 L474.3 325.1 L474.4 324.9 L474.1 324.8 Z M477.4 283.7 L477.4 283.7 L477.3 283.8 L477.4 283.8 L477.4 283.8 L477.5 283.8 L477.5 283.8 L477.4 283.7 L477.4 283.7 Z M475.8 284.6 L476.1 284.7 L476.4 284.6 L476.4 284.4 L476 284.4 L475.8 284.6 Z M475.7 280.8 L475.6 281.1 L476.1 281 L476 280.8 L475.7 280.8 Z M456 315.1 L456.3 314.9 L456.2 314.6 L455.9 315 L456 315.1 Z M480.4 276.9 L480.6 276.7 L480.4 276.6 L480.2 276.7 L480.4 276.9 Z M464.9 302.3 L465.4 302.1 L465.1 301.9 L464.7 301.9 L464.4 302.2 L464.9 302.3 Z M354.2 366.2 L354.4 366.1 L354.4 366.2 L354.7 365.9 L354.6 365.7 L354.2 365.8 L354.2 366 L354.2 366.2 Z M366.3 369.3 L366.6 369.3 L366.4 369 L366.3 369.3 Z M461.7 208.2 L462.1 208.1 L461.6 207.7 L461.7 208.2 Z M456.3 230.2 L456.4 230.4 L456.6 230.2 L456.4 230 L456.3 230.2 Z M463.3 206.4 L463.2 206.1 L463 206.2 L463.3 206.4 Z M465.7 302.1 L466.2 301.9 L465.8 301.8 L465.6 302 L465.7 302.1 Z M489.1 193.5 L489.4 193.4 L489.1 193.3 L489.1 193.5 Z M449.5 345.9 L449.6 346.2 L449.7 345.9 L449.5 345.9 Z M460.6 210.1 L460.6 209.7 L460.3 209.7 L460.6 210.1 Z M458.1 311.8 L458.4 311.6 L458.1 311.3 L457.8 311.3 L457.7 311.5 L458.1 311.8 Z M480.9 276.9 L480.9 276.6 L480.7 276.7 L480.9 276.9 Z M368.5 366.9 L368 366.8 L367.6 367.2 L367.8 367.6 L368.2 367.6 L368.5 367.1 L368.5 366.9 Z M462.2 206.9 L462.6 206.7 L462.3 206.6 L462.2 206.9 Z M468.5 213.5 L468.5 213.4 L468.5 213.4 L468.5 213.4 L468.5 213.5 Z M451.7 314.4 L452.2 314.3 L452.6 314.1 L452.5 313.9 L452.1 314 L451.8 313.9 L451.6 314.2 L451.7 314.4 Z M475.1 283.6 L475.4 283.8 L475.8 284 L475.4 283.7 L475.1 283.6 Z M468.5 213.4 L468.5 213.4 L468.5 213.4 L468.5 213.4 L468.5 213.4 L468.5 213.4 Z M468.5 213.4 L468.5 213.4 L468.5 213.4 L468.5 213.4 Z M477.6 284 L477.6 284 L477.6 284 L477.6 284 L477.6 284 Z M469.8 270 L469.8 269.9 L469.4 269.7 L469.8 270 Z M402.4 353.6 L402.4 353.6 L402.4 353.5 L402.4 353.5 L402.4 353.5 L402.4 353.6 L402.4 353.6 L402.4 353.6 Z M367.7 372.5 L368 372.2 L368 372 L367.7 372.5 Z M472.7 272.1 L472.9 272.6 L473.2 272.6 L473.3 272.1 L472.8 272 L472.7 272.1 Z M473.5 283.7 L473.6 284 L473.8 283.7 L473.5 283.7 Z M464.4 302 L464.8 301.8 L464.7 301.7 L464.4 302 Z M444.4 199 L443.9 199.3 L444.3 199.4 L444.4 199 Z M458.1 354.1 L458.4 353.9 L458.3 353.8 L458.1 354.1 Z M474.6 283.6 L474.7 283.6 L474.7 283.6 L474.6 283.6 Z M472.2 271.9 L472.4 272.3 L472.5 271.9 L472.2 271.9 Z M402.3 353.7 L402.3 353.7 L402.3 353.7 L402.3 353.7 Z M417.4 365.4 L417.5 365.7 L417.8 366 L418.3 366.1 L418.5 365.9 L418.3 365.3 L418.1 365.2 L417.6 365.2 L417.4 365.4 Z M417.2 366.5 L417.3 366.8 L417.6 367.1 L417.9 367 L417.9 366.8 L417.5 366.3 L417.2 366.5 Z M416.4 350.4 L416.4 350.4 L416.4 350.4 L416.4 350.4 Z M402.4 354.3 L402.4 354.3 L402.4 354.3 L402.4 354.3 L402.4 354.3 Z M390.2 380.4 L390.6 380.3 L390.7 380.1 L390.5 379.9 L390.2 379.9 L390.1 380.2 L390.2 380.4 Z M397.9 383.3 L398.3 383.4 L398.7 383.2 L398.7 382.7 L398.3 382.6 L397.7 382.7 L397.6 382.9 L397.9 383.3 Z M402.4 353.6 L402.4 353.6 L402.4 353.6 L402.4 353.6 Z M416.4 350.4 L416.4 350.4 L416.4 350.4 L416.4 350.4 Z M402.9 354.1 L402.9 354.1 L402.9 354.1 L402.9 354.1 Z M402.4 354.4 L402.5 354.4 L402.4 354.4 L402.4 354.4 Z M373.7 376.2 L373.7 376.2 L373.7 376.2 L373.7 376.2 L373.7 376.2 Z M395.6 355.2 L395.6 355.2 L395.6 355.3 L395.6 355.2 Z M478 343.6 L480.6 333.4 L480.6 333.3 L480.6 333.3 L480.6 333.3 L480.6 333.3 L480.5 333.3 L480.5 333.3 L480.5 333.3 L480.5 333.3 L480.4 333.3 L480.4 333.3 L477.8 343.6 L477.8 343.6 L477.8 343.6 L477.9 343.7 L477.9 343.7 L477.9 343.7 L477.9 343.7 L478 343.7 L478 343.7 L478 343.7 L478 343.6 Z M465.6 368.1 L472.4 360 L472.4 360 L472.4 359.9 L472.4 359.9 L472.4 359.9 L472.4 359.9 L472.4 359.8 L472.3 359.8 L472.3 359.8 L472.3 359.8 L472.3 359.9 L465.5 368 L465.4 368 L465.4 368.1 L465.4 368.1 L465.5 368.1 L465.5 368.1 L465.5 368.1 L465.5 368.1 L465.6 368.1 L465.6 368.1 L465.6 368.1 Z M449.9 393.9 L455 384.5 L455 384.5 L455 384.5 L455 384.5 L455 384.4 L455 384.4 L455 384.4 L454.9 384.4 L454.9 384.4 L454.9 384.4 L454.9 384.5 L449.8 393.8 L449.8 393.9 L449.8 393.9 L449.8 393.9 L449.8 393.9 L449.8 394 L449.8 394 L449.9 394 L449.9 394 L449.9 393.9 L449.9 393.9 Z"/>
</svg>
