<svg xmlns="http://www.w3.org/2000/svg" width="360" height="640" viewBox="0 0 360 640">
  <rect width="360" height="640" fill="#a8c99d"/>
  <g fill="none" stroke="#7fae73" stroke-width="1.6" stroke-linecap="round" stroke-linejoin="round" opacity=".54">
    <path d="M22 34c18-12 36-7 42 9 7 20-10 35-31 31-18-4-25-25-11-40Z"/>
    <path d="M42 51c-8-4-8-14 1-17 8 3 9 13-1 17Zm18 5c-8-4-8-14 1-17 8 3 9 13-1 17Z"/>
    <path d="M118 24l6 14 15 1-12 9 4 15-13-8-13 8 4-15-12-9 15-1 6-14Z"/>
    <path d="M224 38c26 10 39 28 31 47-8 18-37 19-59 3-22-17-11-61 28-50Z"/>
    <path d="M229 59c-6-7 5-15 10-6m-30 5c5-10 16-8 20 2m-2 18c10 8 24 8 34 0"/>
    <path d="M310 28c9 12 8 28-3 37-9 8-25 4-32-9-7-14 0-31 17-33"/>
    <path d="M286 51c14-2 23-9 27-22"/>

    <path d="M47 118c11-17 34-14 42 4 9 21-13 42-33 30-19 14-41-4-33-27 4-12 15-16 24-7Z"/>
    <path d="M63 125c-3 10 5 18 15 14m-34 3c-4-8 0-15 8-17"/>
    <path d="M147 118c21 6 38 20 42 41-28 1-52-9-65-30 8-9 15-12 23-11Z"/>
    <path d="M138 129c16 15 32 24 51 30m-35-33c-2 12-1 22 5 31"/>
    <path d="M258 112l19 18-14 22-27-5-3-26 25-9Z"/>
    <path d="M244 126l19 18m-22 0l20-23"/>
    <path d="M312 120c18 3 25 20 16 35-10 15-33 12-39-5-6-16 5-33 23-30Z"/>

    <path d="M80 214c25 0 44 20 44 43H36c0-23 19-43 44-43Z"/>
    <path d="M47 257h66m-50-32c-3 9-1 18 4 25m27-25c4 8 4 16 0 25"/>
    <path d="M179 218c7-14 25-11 28 4 13-4 24 7 20 20-4 16-27 20-45 10-18 10-40-2-35-21 4-14 22-19 32-13Z"/>
    <path d="M281 214c18-9 40 5 40 26 0 18-16 32-34 29-20-3-31-27-20-44 4-6 9-9 14-11Z"/>
    <path d="M284 232c10 10 22 12 35 6m-41 14c13 8 26 10 39 1"/>

    <path d="M36 328h60l-9 42H45l-9-42Z"/>
    <path d="M44 328c1-17 42-17 43 0m-28 0v42m18-42v42"/>
    <path d="M148 318l56 26-50 31 8-28-14-29Z"/>
    <path d="M158 330l26 13m-26 17l26-16"/>
    <path d="M258 319c13 8 19 25 12 38-8 14-28 15-38 2-11-14-6-36 12-43"/>
    <path d="M242 340c8 9 18 11 30 6m-35 20c20 7 38 2 52-13"/>
    <path d="M315 314l10 28 29 2-23 17 7 28-24-16-24 16 8-28-24-17 29-2 12-28Z"/>

    <path d="M65 442c24-26 66-7 63 31-2 27-28 43-55 33-26-10-32-43-8-64Z"/>
    <path d="M75 461c18 16 31 16 48 0m-54 24c22 11 45 9 65-7"/>
    <path d="M201 432c23 2 42 20 44 43-28 7-56-5-74-30 9-8 19-13 30-13Z"/>
    <path d="M187 444c16 17 34 26 55 31m-30-34c-3 12-2 22 5 31"/>
    <path d="M304 434c18 0 31 14 31 31 0 18-13 31-31 31s-31-13-31-31c0-17 13-31 31-31Z"/>
    <path d="M287 464h34m-17-17v34"/>

    <path d="M38 544c14-14 39-7 45 12 5 18-7 35-28 37-20 2-36-15-31-35 2-6 7-11 14-14Z"/>
    <path d="M42 568c12 5 24 5 36 0"/>
    <path d="M136 538c20 6 27 25 17 42-10 18-39 16-47-4-8-19 7-42 30-38Z"/>
    <path d="M122 561c9 10 22 12 33 4"/>
    <path d="M219 535l21 12-2 25-23 12-21-13 2-24 23-12Z"/>
    <path d="M198 548l40 24m-41-1l42-24"/>
    <path d="M304 535c22 4 36 25 30 45-26 0-48-16-58-40 9-5 18-7 28-5Z"/>
  </g>
</svg>
